<?xml version="1.0" encoding="utf-8"?>
<!-- Generator: Adobe Illustrator 23.0.0, SVG Export Plug-In . SVG Version: 6.00 Build 0)  -->
<svg version="1.1" id="Layer_1" xmlns="http://www.w3.org/2000/svg" xmlns:xlink="http://www.w3.org/1999/xlink" x="0px" y="0px"
	 viewBox="0 0 257.9 359.4" style="enable-background:new 0 0 257.9 359.4;" xml:space="preserve">
<style type="text/css">
	.st0{fill:#FFFFFF;stroke:#1A1A1A;stroke-width:6;stroke-linecap:round;stroke-linejoin:round;}
	.st1{fill:none;stroke:#1A1A1A;stroke-width:6;stroke-linecap:round;stroke-linejoin:round;}
</style>
<polygon class="st0" points="188.6,38 67,68.1 58.1,193.1 174.2,240.2 254.9,144.3 "/>
<polygon class="st0" points="2.6,115.9 53.7,204.4 104.8,115.9 "/>
<polygon class="st0" points="67.7,3.2 2.6,115.9 132.7,115.9 "/>
<polygon class="st0" points="147,91.7 249.2,91.7 198.1,3.2 "/>
<polygon class="st0" points="35,236.7 128.1,236.7 81.6,156 "/>
<polygon class="st0" points="35,236.7 108.7,236.7 71.9,300.6 "/>
<polygon class="st0" points="28.9,323.1 84.8,323.1 56.9,274.7 "/>
<polygon class="st0" points="29,323.1 68.3,323.1 48.7,357 "/>
<polygon class="st0" points="67.7,3.2 132.9,116.1 198.1,3.2 "/>
<line class="st1" x1="178.3" y1="192.6" x2="203.7" y2="203.5"/>
</svg>
