<svg xmlns="http://www.w3.org/2000/svg" viewBox="0 0 257.9 359.4">
  <defs>
    <style>
      .cls-1 {
        fill: #fff;
      }

      .cls-1, .cls-2 {
        stroke: #1a1a1a;
        stroke-linecap: round;
        stroke-linejoin: round;
        stroke-width: 6px;
      }

      .cls-2 {
        fill: none;
      }
    </style>
  </defs>
  <title>portrait_2</title>
  <g id="Layer_2" data-name="Layer 2">
    <g id="head">
      <g>
        <polygon class="cls-1" points="188.6 38 67 68.1 58.1 193.1 174.2 240.2 254.9 144.3 188.6 38"/>
        <polygon class="cls-1" points="3.1 116.4 54.2 204.9 105.3 116.4 3.1 116.4"/>
        <polygon class="cls-1" points="68.1 3.7 3 116.4 133.1 116.4 68.1 3.7"/>
        <polygon class="cls-1" points="147.1 91.5 249.3 91.5 198.2 3 147.1 91.5"/>
        <polygon class="cls-1" points="35.9 236.7 129 236.7 82.5 156 35.9 236.7"/>
        <polygon class="cls-1" points="35.9 236.6 109.6 236.6 72.8 300.5 35.9 236.6"/>
        <polygon class="cls-1" points="29.6 322.5 85.5 322.5 57.6 274.1 29.6 322.5"/>
        <polygon class="cls-1" points="29.6 322.5 68.9 322.5 49.3 356.4 29.6 322.5"/>
        <polygon class="cls-1" points="67.7 3.2 132.9 116.1 198.1 3.2 67.7 3.2"/>
        <line class="cls-2" x1="178.3" y1="192.6" x2="203.7" y2="203.5"/>
      </g>
    </g>
  </g>
</svg>
