<svg xmlns="http://www.w3.org/2000/svg" viewBox="0 0 498 498">
  <defs>
    <style>
      .cls-1 {
        fill: #61dafb;
      }

      .cls-2 {
        fill: none;
      }
    </style>
  </defs>
  <title>react</title>
  <g id="Layer_2" data-name="Layer 2">
    <g id="Layer_2-2" data-name="Layer 2">
      <g>
        <path class="cls-1" d="M494.3,249.1c0-32.5-40.7-63.3-103.1-82.4,14.4-63.6,8-114.2-20.2-130.4a43.8,43.8,0,0,0-22.4-5.6V53A23.2,23.2,0,0,1,360,55.6c13.6,7.8,19.5,37.5,14.9,75.7-1.1,9.4-2.9,19.3-5.1,29.4a484.6,484.6,0,0,0-63.5-10.9,487.8,487.8,0,0,0-41.6-50c32.6-30.3,63.2-46.9,84-46.9V30.6h0c-27.5,0-63.5,19.6-99.9,53.6C212.4,50.4,176.4,31,148.9,31V53.3c20.7,0,51.4,16.5,84,46.6a472.3,472.3,0,0,0-41.3,49.9,467,467,0,0,0-63.6,11c-2.3-10-4-19.7-5.2-29-4.7-38.2,1.1-67.9,14.6-75.8,3-1.8,6.9-2.6,11.5-2.6V31.1h0a44.6,44.6,0,0,0-22.6,5.6c-28.1,16.2-34.4,66.7-19.9,130.1C44.2,186,3.7,216.7,3.7,249.1s40.7,63.2,103.1,82.4c-14.4,63.6-8,114.1,20.2,130.3,6.5,3.8,14.1,5.6,22.5,5.6,27.5,0,63.5-19.6,99.9-53.6,36.4,33.8,72.4,53.2,99.9,53.2a44.6,44.6,0,0,0,22.6-5.6c28.1-16.2,34.4-66.7,19.9-130.1C453.8,312.3,494.3,281.5,494.3,249.1ZM364.1,182.4c-3.7,12.9-8.3,26.2-13.5,39.4-4.1-8-8.4-16-13.1-24S328,182,323.1,174.5C337.3,176.6,351,179.2,364.1,182.4ZM318.3,288.8q-11.7,20.3-24.1,38.3c-14.9,1.2-30,2-45.2,2s-30.2-.8-45-1.9q-12.5-17.8-24.2-38T159,249.4c6.2-13.4,13.2-26.8,20.7-39.9s15.8-26.3,24.1-38.2c14.9-1.3,30-2,45.2-2s30.2.7,45,1.9q12.5,17.9,24.2,38T339,249C332.7,262.3,325.8,275.8,318.3,288.8Zm32.3-13c5.4,13.4,10,26.8,13.8,39.8-13.1,3.2-26.9,5.9-41.2,8,4.9-7.7,9.8-15.6,14.4-23.7S346.5,283.8,350.6,275.8ZM249.2,382.6a412.3,412.3,0,0,1-27.8-32c9,.4,18.2.7,27.5.7s18.7-.2,27.8-.7A390.3,390.3,0,0,1,249.2,382.6Zm-74.4-58.9c-14.2-2.1-27.9-4.7-41-7.9,3.7-12.9,8.3-26.2,13.5-39.5,4.1,8,8.4,16,13.1,24S169.9,316.1,174.8,323.7Zm73.9-208.1a412.3,412.3,0,0,1,27.8,32c-9-.4-18.2-.7-27.5-.7s-18.7.2-27.8.7A390.3,390.3,0,0,1,248.7,115.6Zm-74,58.9c-4.9,7.7-9.8,15.6-14.4,23.7s-8.9,15.9-13,23.9c-5.4-13.4-10-26.8-13.8-39.8C146.6,179.3,160.4,176.6,174.7,174.5ZM84.2,299.7c-35.4-15.1-58.3-34.9-58.3-50.6s22.9-35.6,58.3-50.6c8.6-3.7,18-7,27.7-10.2a474.7,474.7,0,0,0,22.5,60.9,473.5,473.5,0,0,0-22.2,60.6C102.3,306.8,92.9,303.3,84.2,299.7ZM138,442.6c-13.6-7.8-19.5-37.5-14.9-75.8,1.1-9.3,2.9-19.2,5.1-29.3a485,485,0,0,0,63.5,10.8,487.8,487.8,0,0,0,41.6,50c-32.6,30.3-63.2,46.9-84,46.9A22.8,22.8,0,0,1,138,442.6Zm237.2-76.3c4.7,38.3-1.1,67.9-14.6,75.8-3,1.8-6.9,2.6-11.5,2.6-20.7,0-51.4-16.5-84-46.6a472.3,472.3,0,0,0,41.3-49.9,467,467,0,0,0,63.6-11A284.7,284.7,0,0,1,375.2,366.3Zm38.5-66.6c-8.6,3.7-18,7-27.7,10.1a480.3,480.3,0,0,0-22.5-60.9,473.5,473.5,0,0,0,22.2-60.6c9.9,3.1,19.3,6.5,28.1,10.2,35.4,15.1,58.3,34.9,58.3,50.6S449.1,284.7,413.7,299.7Z"/>
        <circle class="cls-1" cx="248.9" cy="249.1" r="45.7"/>
      </g>
      <rect class="cls-2" width="498" height="498"/>
    </g>
  </g>
</svg>
