<svg xmlns="http://www.w3.org/2000/svg" viewBox="0 0 547.8 410.6">
  <defs>
    <style>
      .cls-1 {
        fill: #cd6799;
      }
    </style>
  </defs>
  <title>sass</title>
  <g id="Layer_2" data-name="Layer 2">
    <g id="Layer_1-2" data-name="Layer 1">
      <path class="cls-1" d="M471.4,236a113.4,113.4,0,0,0-49.6,11.5c-5.1-10.1-10.2-19-11.1-25.7s-2.2-12.3-1-21.6,6.6-22.3,6.5-23.2-1.2-5.7-12.2-5.8-20.5,2.1-21.6,5a105.9,105.9,0,0,0-4.6,16.4c-1.9,10-22,45.7-33.5,64.4-3.7-7.3-6.9-13.8-7.5-18.8-1-7.8-2.2-12.4-1-21.6s6.6-22.4,6.5-23.3-1.2-5.7-12.2-5.8-20.5,2.1-21.6,5.1-2.3,9.7-4.6,16.3-29,66.1-36,81.6c-3.6,7.8-6.7,14.2-8.9,18.5h0l-.3.7-3,5.7h0c-1.5,2.7-3.1,5.2-3.9,5.2s-1.6-7.2.3-17c3.9-20.7,13.5-52.9,13.4-54s1.8-6.2-6.2-9.1-10.6,1.9-11.3,1.9-1.2,1.7-1.2,1.7,8.7-36.3-16.6-36.3c-15.8,0-37.6,17.3-48.4,32.9L145,261l-17.7,9.7-1.2-1.3c-30.6-32.7-87.2-55.7-84.8-99.6.9-16,6.5-58,108.8-109C233.9,19,300.9,30.5,312.5,56c16.6,36.4-35.8,104-122.8,113.8-33.2,3.7-50.7-9.2-55-14s-5.3-5.2-7-4.3-1,6,0,8.7c2.6,6.7,13.3,18.7,31.5,24.7,16,5.2,54.9,8.1,102-10.1,52.7-20.4,93.9-77.1,81.8-124.6S250.7-13.9,175,13C130,29,81.2,54.2,46.1,87,4.4,125.9-2.2,159.9.5,174.1c9.8,50.4,79.2,83.2,107,107.5l-3.8,2.1c-13.9,6.9-66.9,34.6-80.1,63.9-15,33.2,2.4,57,13.9,60.2,35.7,10,72.4-7.9,92.1-37.3s17.3-67.6,8.2-85.1l-.3-.6,10.9-6.4c7.1-4.2,14-8.1,20.1-11.4-3.4,9.3-5.9,20.4-7.2,36.4-1.5,18.9,6.2,43.2,16.4,52.8,4.4,4.3,9.8,4.4,13.2,4.4,11.7,0,17.1-9.8,23-21.4,7.2-14.2,13.7-30.7,13.7-30.7s-8.1,44.6,13.9,44.6c8,0,16.1-10.4,19.7-15.7h0l.6-1,1.3-2.1v-.2c3.3-5.6,10.4-18.4,21.1-39.4,13.9-27.2,27.1-61.2,27.1-61.2a199.1,199.1,0,0,0,5.3,22.1c2.4,8.1,7.5,17,11.4,25.6-3.2,4.5-5.1,7-5.1,7h0c-2.6,3.4-5.4,7.1-8.4,10.7-11,13-24,27.9-25.7,32.2s-1.6,8.7,2.4,11.7,8,2.6,13.4,2.2a63,63,0,0,0,20.2-4.6,67.5,67.5,0,0,0,17.3-9.1c10.7-7.9,17.1-19.1,16.5-34.1-.3-8.2-2.9-16.4-6.3-24.1l3-4.2a458.1,458.1,0,0,0,30-51.8,178.6,178.6,0,0,0,5.2,22c2.1,7,6.1,14.6,9.8,22.1-15.9,12.9-25.8,27.9-29.2,37.7-6.3,18.2-1.4,26.5,7.9,28.3,4.2.9,10.2-1,14.6-2.9a70.8,70.8,0,0,0,18.5-9.5c10.8-7.9,21.1-19,20.4-33.9-.2-6.8-2.1-13.5-4.6-20,13.5-5.6,30.9-8.7,53.1-6.1,47.7,5.5,57,35.3,55.2,47.7s-11.8,19.3-15.1,21.4-4.4,2.8-4.1,4.3,2,2.1,4.8,1.7,25-10.2,25.9-33.1C548.9,267.8,520.9,235.7,471.4,236ZM104.2,359.8C88.4,377,66.4,383.5,56.9,378s-6.1-31.2,13.2-49.5c11.8-11.1,27.1-21.4,37.2-27.7l9.8-5.9,1-.6h0l2.5-1.5C127.6,318.8,120.8,341.7,104.2,359.8Zm115-78.2c-5.5,13.4-17,47.7-24,45.9s-9.7-27.7-1.2-53.3c4.2-12.9,13.3-28.3,18.7-34.3,8.6-9.7,18.1-12.8,20.4-8.9S222.6,273.2,219.2,281.6ZM314.1,327c-2.3,1.2-4.4,1.9-5.4,1.3s.9-2,.9-2,11.9-12.8,16.6-18.6c2.7-3.4,5.9-7.4,9.3-11.9a6.2,6.2,0,0,1,.1,1.3C335.5,312.5,320.7,322.8,314.1,327Zm73.2-16.7c-1.7-1.3-1.4-5.3,4.3-17.7,2.2-4.9,7.3-13.1,16.2-21a28.6,28.6,0,0,1,1.7,9.2C409.4,300.1,395.6,307.3,387.3,310.3Z"/>
    </g>
  </g>
</svg>
