<svg xmlns="http://www.w3.org/2000/svg" viewBox="0 0 1260.7 1312.9">
  <defs>
    <style>
      .cls-1, .cls-2, .cls-3 {
        fill: #fff;
      }

      .cls-1 {
        stroke: #000;
      }

      .cls-1, .cls-12, .cls-15, .cls-18, .cls-21, .cls-22, .cls-23, .cls-24, .cls-25, .cls-26, .cls-27, .cls-28, .cls-3, .cls-33 {
        stroke-miterlimit: 10;
      }

      .cls-3 {
        font-size: 70px;
        font-family: RoundedMplus1c-ExtraBold, "Rounded Mplus 1c ExtraBold";
        font-weight: 800;
      }

      .cls-12, .cls-3 {
        stroke: #fff;
      }

      .cls-20, .cls-4 {
        fill: #d6ce41;
      }

      .cls-14, .cls-20, .cls-30, .cls-32, .cls-33, .cls-4, .cls-5 {
        opacity: 0.9;
      }

      .cls-13, .cls-19, .cls-5 {
        fill: #366;
      }

      .cls-12, .cls-22, .cls-6 {
        fill: #daf2f0;
      }

      .cls-16, .cls-18, .cls-21, .cls-23, .cls-25, .cls-27, .cls-29, .cls-33, .cls-7 {
        fill: none;
      }

      .cls-11, .cls-24, .cls-8 {
        fill: #9b6950;
      }

      .cls-8 {
        opacity: 0.8;
      }

      .cls-26, .cls-9 {
        fill: #f4edba;
      }

      .cls-10, .cls-15, .cls-28 {
        fill: #669;
      }

      .cls-12 {
        stroke-width: 11px;
      }

      .cls-15, .cls-27, .cls-28 {
        stroke: #669;
      }

      .cls-15, .cls-18, .cls-21, .cls-23, .cls-25, .cls-27, .cls-29, .cls-33 {
        stroke-width: 3px;
      }

      .cls-16 {
        stroke: #333;
      }

      .cls-16, .cls-18, .cls-21, .cls-23, .cls-25, .cls-29, .cls-33 {
        stroke-linecap: round;
      }

      .cls-16, .cls-29 {
        stroke-linejoin: round;
      }

      .cls-16, .cls-28 {
        stroke-width: 2px;
      }

      .cls-17, .cls-31 {
        fill: #333;
      }

      .cls-18 {
        stroke: #366;
      }

      .cls-19, .cls-24, .cls-28, .cls-30 {
        font-size: 35px;
      }

      .cls-19, .cls-20, .cls-22, .cls-24, .cls-26, .cls-30, .cls-31 {
        font-family: RoundedMplus1c-Bold, "Rounded Mplus 1c Bold";
        font-weight: 700;
      }

      .cls-20 {
        font-size: 35.03px;
      }

      .cls-21, .cls-22 {
        stroke: #daf2f0;
      }

      .cls-22 {
        font-size: 32px;
        stroke-width: 0.75px;
      }

      .cls-23, .cls-24 {
        stroke: #9b6950;
      }

      .cls-25, .cls-26 {
        stroke: #f4edba;
      }

      .cls-26 {
        font-size: 37px;
      }

      .cls-28 {
        font-family: RoundedMplus1c-Regular, "Rounded Mplus 1c";
      }

      .cls-29 {
        stroke: #9fb230;
      }

      .cls-30, .cls-32 {
        fill: #9fb230;
      }

      .cls-31 {
        font-size: 25px;
      }

      .cls-33 {
        stroke: #d6ce41;
      }
    </style>
  </defs>
  <title>skillset_6</title>
  <g id="Layer_2" data-name="Layer 2">
    <g id="Layer_3" data-name="Layer 3">
      <polygon class="cls-1" points="697.7 643.8 645.9 643.8 601.1 669.7 575.2 714.5 575.2 766.3 601.1 811.1 645.9 837 697.7 837 742.5 811.1 768.4 766.3 768.4 714.5 742.5 669.7 697.7 643.8"/>
    </g>
    <g id="shapes">
      <polygon class="cls-2" points="106.1 890.3 260.8 1158.3 528.7 1312.9 838.1 1312.9 1106 1158.3 1260.7 890.3 1260.7 581 1106 313 838.1 158.4 674.8 744.3 106.1 890.3"/>
      <text class="cls-3" transform="translate(160.7 823.8) rotate(-91.7)"> </text>
      <text class="cls-3" transform="translate(160.1 803.5) rotate(-91.7)"> </text>
      <text class="cls-3" transform="translate(159.5 783.1) rotate(-91.7)"> </text>
      <text class="cls-3" transform="translate(158.9 762.8) rotate(-91.7)"> </text>
      <text class="cls-3" transform="matrix(-0.03, -1, 1, -0.03, 158.26, 742.4)">h</text>
      <text class="cls-3" transform="matrix(-0.03, -1, 1, -0.03, 156.99, 699.08)">o</text>
      <text class="cls-3" transform="translate(155.8 658.8) rotate(-91.7)">w</text>
      <text class="cls-3" transform="translate(157.5 607.6) rotate(-61.7)"> <tspan x="20.4" y="0">I</tspan><tspan x="46.1" y="0"> </tspan><tspan x="66.5" y="0">s</tspan><tspan x="103.8" y="0">p</tspan><tspan x="147.8" y="0">e</tspan><tspan x="187.3" y="0">n</tspan><tspan x="230.2" y="0">d</tspan></text>
      <text class="cls-3" transform="translate(282.1 367.6) rotate(-31.7)"> </text>
      <text class="cls-3" transform="matrix(0.85, -0.53, 0.53, 0.85, 299.43, 356.94)">m</text>
      <text class="cls-3" transform="translate(349 326.4) rotate(-31.7)">y</text>
      <text class="cls-3" transform="translate(382.4 305.7) rotate(-31.7)"> </text>
      <text class="cls-3" transform="translate(399.7 295) rotate(-31.7)">t</text>
      <text class="cls-3" transform="translate(431.7 275.3) rotate(-31.7)">i</text>
      <text class="cls-3" transform="translate(452.6 262.4) rotate(-31.7)">m</text>
      <text class="cls-3" transform="matrix(0.85, -0.53, 0.53, 0.85, 503.32, 231.07)">e</text>
      <text class="cls-3" transform="matrix(1, -0.03, 0.03, 1, 533.5, 214.02)"> </text>
      <text class="cls-3" transform="translate(553.8 213.4) rotate(-1.7)">n</text>
      <text class="cls-3" transform="translate(596.7 212.2) rotate(-1.7)">o</text>
      <text class="cls-3" transform="translate(637.1 211) rotate(-1.7)">w</text>
      <g>
        <polyline class="cls-2" points="879.9 539.1 954.9 669.1 954.9 819.1 879.9 948.1 749.9 1023.1 599.9 1023.1 879.9 539.1"/>
        <polygon class="cls-4" points="877.9 537.1 951.9 667.1 952.9 818.1 877.9 947.1 747.9 1022.1 597.9 1022.1 747.9 463.1 877.9 537.1"/>
        <polygon class="cls-2" points="750 464.2 600.1 464.2 470.4 539.1 395.4 668.9 395.4 818.8 470.4 948.5 600.1 1023.5 750 1023.5 879.8 948.5 954.7 818.8 954.7 668.9 879.8 539.1 750 464.2"/>
        <polygon class="cls-2" points="750 464.2 600.1 464.2 470.4 539.1 395.4 668.9 395.4 818.8 470.4 948.5 600.1 1023.5 750 1023.5 879.8 948.5 954.7 818.8 954.7 668.9 879.8 539.1 750 464.2"/>
        <polygon class="cls-5" points="954.4 818.6 395.4 668.6 470.4 538.6 600.4 464.6 750.4 464.6 879.4 538.6 954.4 668.6 954.4 818.6"/>
        <polygon class="cls-6" points="395.9 668.1 673.9 744.1 395.4 818.8 395.9 668.1"/>
        <g>
          <polygon class="cls-7" points="876.2 540.9 747.6 466.6 599.2 466.6 470.6 540.9 396.4 669.4 396.4 817.8 673.7 744.2 671.5 746.4 673.9 744.1 600.2 1020.6 747.6 1020.6 876.2 946.4 950.4 817.9 950.4 669.4 876.2 540.9"/>
          <polygon class="cls-8" points="671.5 746.4 673.7 744.2 396.4 817.8 396.4 817.9 470.6 946.4 599.2 1020.6 600.2 1020.6 673.9 744.1 671.5 746.4"/>
        </g>
        <g>
          <polygon class="cls-7" points="674.1 743.8 672.9 744.1 674.1 743.8 673.4 743.6 779.3 352.6 778.6 352.1 569.1 352.1 387.6 456.9 282.9 638.4 282.9 847.9 387.6 1029.4 569.1 1134.1 778.6 1134.1 960.1 1029.4 1064.6 848.4 674.1 743.8"/>
          <polygon class="cls-9" points="674.1 743.8 672.9 744.1 674.1 743.8 1064.6 848.4 1064.9 847.9 1064.9 638.4 960.1 456.9 779.3 352.6 673.4 743.6 674.1 743.8"/>
        </g>
        <g>
          <polygon class="cls-7" points="917.8 500.2 917.3 500 674.4 743.5 674.4 743.6 674.4 743.6 673.7 744.2 674.1 742.7 588.2 411.1 585.3 411.1 431 500.2 341.9 654.6 341.9 832.7 431 987.1 585.3 1076.1 763.5 1076.1 917.8 987.1 1006.9 832.7 1006.9 654.6 917.8 500.2"/>
          <polygon class="cls-10" points="674.4 743.6 674.4 743.5 674.4 743.6 674.4 743.6"/>
          <polygon class="cls-10" points="673.7 744.2 674.4 743.6 674.1 742.7 673.7 744.2"/>
          <polygon class="cls-10" points="764.2 411.6 674.1 742.7 674.4 743.6 674.4 743.5 764.3 411.7 764.2 411.6"/>
        </g>
        <polyline class="cls-2" points="879.9 539.1 954.9 669.1 954.9 819.1 879.9 948.1 749.9 1023.1 599.9 1023.1 879.9 539.1"/>
        <polygon class="cls-11" points="954.4 818.6 395.4 668.6 470.4 538.6 600.4 464.6 750.4 464.6 879.4 538.6 954.4 668.6 954.4 818.6"/>
        <polygon class="cls-12" points="387.9 664.1 665.9 740.1 387.4 814.8 387.9 664.1"/>
        <g>
          <polygon class="cls-7" points="875.2 539.9 746.6 465.6 598.2 465.6 469.6 539.9 395.4 668.4 395.4 816.8 672.7 743.2 670.5 745.4 672.9 743.1 599.2 1019.6 746.6 1019.6 875.2 945.4 949.4 816.9 949.4 668.4 875.2 539.9"/>
          <polygon class="cls-13" points="670.5 746.4 672.7 744.2 395.4 817.8 395.4 817.9 469.6 946.4 598.2 1020.6 599.2 1020.6 672.9 744.1 670.5 746.4"/>
        </g>
        <g>
          <polygon class="cls-7" points="674.1 743.9 672.7 744.3 674.1 743.9 673.3 743.7 795.3 293.6 794.5 293.1 553.3 293.1 344.5 413.7 223.9 622.6 223.9 863.7 344.5 1072.6 553.3 1193.1 794.5 1193.1 1003.3 1072.6 1123.6 864.2 674.1 743.9"/>
          <polygon class="cls-9" points="674.1 743.9 672.7 744.3 674.1 743.9 1123.6 864.2 1123.9 863.7 1123.9 622.6 1003.3 413.7 795.3 293.6 673.3 743.7 674.1 743.9"/>
        </g>
        <g class="cls-14">
          <polygon class="cls-7" points="942.7 475.4 942.1 475 674.4 743.5 674.4 743.6 674.4 743.6 673.6 744.3 674.1 742.6 579.4 377.1 576.2 377.1 406.1 475.4 307.9 645.4 307.9 841.9 406.1 1011.9 576.2 1110.1 772.6 1110.1 942.7 1011.9 1040.9 841.9 1040.9 645.4 942.7 475.4"/>
          <polygon class="cls-10" points="674.4 743.6 674.4 743.5 674.4 743.6 674.4 743.6"/>
          <polygon class="cls-10" points="673.6 744.3 674.4 743.6 674.1 742.6 673.6 744.3"/>
          <g>
            <polygon class="cls-15" points="772.6 377.1 579.4 377.1 674.1 742.6 773.4 377.6 772.6 377.1"/>
            <polygon class="cls-15" points="773.5 377.7 674.4 743.5 942.1 475 773.5 377.7"/>
          </g>
          <polygon class="cls-10" points="773.4 377.6 674.1 742.6 674.4 743.6 674.4 743.5 773.5 377.7 773.4 377.6"/>
        </g>
        <polyline class="cls-13" points="671.9 744.1 747.1 1021.1 598.7 1021.1 669.9 747.1"/>
        <polygon class="cls-13" points="747 1021 875.4 948.1 673.2 744.4 672.9 747.9 671.9 744.1 669.9 747.1 598.7 1021.1 746.3 1021.1 746.4 1021.4 746.8 1021.1 747.1 1021.1 747 1021"/>
        <polygon class="cls-4" points="879.9 538.1 953.9 668.1 954.9 819.1 879.9 948.1 749.9 1023.1 599.9 1023.1 749.9 464.1 879.9 538.1"/>
      </g>
      <polygon class="cls-2" points="697 659.1 651.7 659.1 612.5 681.8 589.9 721 589.9 766.3 612.5 805.5 651.7 828.1 697 828.1 736.2 805.5 758.9 766.3 758.9 721 736.2 681.8 697 659.1"/>
      <polyline class="cls-16" points="631.9 755 643.3 774.8 663 786.1 685.8 786.1 705.5 774.8 716.9 755 716.9 732.3 705.5 712.5 685.8 701.1"/>
      <polygon class="cls-17" points="640.9 752.6 649.9 768.2 665.4 777.1 683.4 777.1 698.9 768.2 707.9 752.6 707.9 734.7 698.9 719.1 683.4 710.1 673.9 744.1 640.9 752.6"/>
      <polyline class="cls-18" points="376.8 823.9 452.3 962 593.3 1046.5 756.9 1045.7 891.2 968.6"/>
      <text class="cls-19" transform="translate(352.8 848.9) rotate(61.3)"> </text>
      <text class="cls-19" transform="matrix(0.48, 0.88, -0.88, 0.48, 357.54, 857.61)"> </text>
      <text class="cls-19" transform="matrix(0.48, 0.88, -0.88, 0.48, 362.31, 866.33)">H</text>
      <text class="cls-19" transform="translate(374.1 888) rotate(61.3)">T</text>
      <text class="cls-19" transform="matrix(0.48, 0.88, -0.88, 0.48, 385.02, 907.86)">M</text>
      <text class="cls-19" transform="translate(399.1 933.6) rotate(61.3)">L</text>
      <text class="cls-19" transform="translate(409.2 952) rotate(61.3)"> </text>
      <text class="cls-19" transform="translate(413.9 960.7) rotate(61.3)"> </text>
      <text class="cls-19" transform="translate(418.7 969.5) rotate(61.3)"> </text>
      <text class="cls-19" transform="translate(426.9 986.1) rotate(30.9)">C</text>
      <text class="cls-19" transform="matrix(0.86, 0.51, -0.51, 0.86, 445.66, 997.38)">S</text>
      <text class="cls-19" transform="matrix(0.86, 0.51, -0.51, 0.86, 462.53, 1007.49)">S</text>
      <text class="cls-19" transform="matrix(0.86, 0.51, -0.51, 0.86, 479.71, 1017.79)">(</text>
      <text class="cls-19" transform="matrix(0.86, 0.51, -0.51, 0.86, 490.64, 1024.34)">S</text>
      <text class="cls-19" transform="matrix(0.86, 0.51, -0.51, 0.86, 507.51, 1034.46)">A</text>
      <text class="cls-19" transform="matrix(0.86, 0.51, -0.51, 0.86, 526.5, 1045.84)">S</text>
      <text class="cls-19" transform="translate(543.4 1056) rotate(30.9)">S</text>
      <text class="cls-19" transform="translate(560.5 1066.2) rotate(30.9)">)</text>
      <text class="cls-20" transform="matrix(0.5, -0.86, 0.86, 0.5, 949.6, 1000.65)">v</text>
      <text class="cls-20" transform="matrix(0.5, -0.86, 0.86, 0.5, 958.93, 984.59)">a</text>
      <text class="cls-20" transform="translate(968.8 967.6) rotate(-59.8)">n</text>
      <text class="cls-20" transform="matrix(0.5, -0.86, 0.86, 0.5, 979.34, 949.5)">i</text>
      <text class="cls-20" transform="matrix(0.5, -0.86, 0.86, 0.5, 984.93, 939.88)">l</text>
      <text class="cls-20" transform="translate(990.5 930.2) rotate(-59.8)">l</text>
      <text class="cls-20" transform="translate(996.5 920) rotate(-59.8)">a</text>
      <text class="cls-20" transform="translate(1006.4 903) rotate(-59.8)"> </text>
      <text class="cls-20" transform="translate(1011.4 894.4) rotate(-59.8)">J</text>
      <text class="cls-20" transform="translate(1021 877.9) rotate(-59.8)">S</text>
      <text class="cls-20" transform="matrix(0.5, -0.86, 0.86, 0.5, 1031.3, 860.12)"> </text>
      <text class="cls-20" transform="translate(1037.4 843.5) rotate(-90.4)">&amp;</text>
      <text class="cls-20" transform="translate(1037.2 818.1) rotate(-90.4)"> </text>
      <text class="cls-20" transform="translate(1037.1 808.1) rotate(-90.4)">l</text>
      <text class="cls-20" transform="translate(1037.1 797) rotate(-90.4)">i</text>
      <text class="cls-20" transform="translate(1037 785.1) rotate(-90.4)">b</text>
      <text class="cls-20" transform="translate(1036.8 763.9) rotate(-90.4)">r</text>
      <text class="cls-20" transform="translate(1036.7 747.9) rotate(-90.4)">a</text>
      <text class="cls-20" transform="matrix(-0.01, -1, 1, -0.01, 1036.61, 728.3)">r</text>
      <text class="cls-20" transform="translate(1036.5 711.3) rotate(-90.4)">i</text>
      <text class="cls-20" transform="matrix(-0.01, -1, 1, -0.01, 1036.42, 699.47)">e</text>
      <text class="cls-20" transform="matrix(-0.49, -0.87, 0.87, -0.49, 1038.24, 672.63)">s</text>
      <line class="cls-21" x1="373.9" y1="811.6" x2="374.9" y2="668.6"/>
      <text class="cls-22" transform="matrix(0.01, -1, 1, 0.01, 361.88, 806.59)">b</text>
      <text class="cls-22" transform="matrix(0.01, -1, 1, 0.01, 362.02, 787.16)">u</text>
      <text class="cls-22" transform="matrix(0.01, -1, 1, 0.01, 362.15, 768.26)">s</text>
      <text class="cls-22" transform="translate(362.3 751.7) rotate(-89.6)">i</text>
      <text class="cls-22" transform="matrix(0.01, -1, 1, 0.01, 362.34, 740.85)">n</text>
      <text class="cls-22" transform="translate(362.5 721.7) rotate(-89.6)">e</text>
      <text class="cls-22" transform="translate(362.6 704.3) rotate(-89.6)">s</text>
      <text class="cls-22" transform="translate(362.7 688) rotate(-89.6)">s</text>
      <polyline class="cls-23" points="755.1 443.3 594.4 442.6 454.4 520.6 377.4 654.6"/>
      <text class="cls-24" transform="matrix(0.5, -0.87, 0.87, 0.5, 365.38, 645.64)">U</text>
      <text class="cls-24" transform="matrix(0.5, -0.87, 0.87, 0.5, 377.2, 625.07)">I</text>
      <text class="cls-24" transform="matrix(0.5, -0.87, 0.87, 0.5, 383.34, 614.38)"> </text>
      <text class="cls-24" transform="matrix(0.5, -0.87, 0.87, 0.5, 388.29, 605.77)">d</text>
      <text class="cls-24" transform="translate(398.9 587.3) rotate(-60.1)">e</text>
      <text class="cls-24" transform="translate(408.4 570.8) rotate(-60.1)">s</text>
      <text class="cls-24" transform="matrix(0.5, -0.87, 0.87, 0.5, 417.44, 555.04)">i</text>
      <text class="cls-24" transform="translate(423.3 544.8) rotate(-60.1)">g</text>
      <text class="cls-24" transform="translate(433.6 526.9) rotate(-60.1)">n</text>
      <text class="cls-24" transform="translate(443.4 511.1) rotate(-29.1)"> </text>
      <text class="cls-24" transform="translate(452 506.3) rotate(-29.1)"> </text>
      <text class="cls-24" transform="matrix(0.87, -0.49, 0.49, 0.87, 460.7, 501.44)">A</text>
      <text class="cls-24" transform="matrix(0.87, -0.49, 0.49, 0.87, 480.67, 490.31)">i</text>
      <text class="cls-24" transform="matrix(0.87, -0.49, 0.49, 0.87, 491.01, 484.55)"> </text>
      <text class="cls-24" transform="translate(499.7 479.7) rotate(-29.1)">X</text>
      <text class="cls-24" transform="matrix(0.87, -0.49, 0.49, 0.87, 517.79, 469.63)">d</text>
      <polyline class="cls-25" points="805.3 251.3 1031.4 382.6 1164.9 607.1 1164.9 872.1"/>
      <text class="cls-26" transform="matrix(0.87, 0.48, -0.48, 0.87, 870.29, 277.3)">A</text>
      <text class="cls-26" transform="translate(891.4 289) rotate(29)">n</text>
      <text class="cls-26" transform="matrix(0.87, 0.48, -0.48, 0.87, 910.75, 299.72)">i</text>
      <text class="cls-26" transform="translate(921.7 305.8) rotate(29)">m</text>
      <text class="cls-26" transform="translate(948.2 320.5) rotate(29)">a</text>
      <text class="cls-26" transform="translate(965.4 330) rotate(29)">t</text>
      <text class="cls-26" transform="matrix(0.87, 0.48, -0.48, 0.87, 982.31, 339.38)">i</text>
      <text class="cls-26" transform="matrix(0.87, 0.48, -0.48, 0.87, 993.24, 345.44)">o</text>
      <text class="cls-26" transform="translate(1011.8 355.7) rotate(29)">n</text>
      <text class="cls-26" transform="translate(1031.1 366.4) rotate(29)">,</text>
      <text class="cls-26" transform="matrix(0.51, 0.86, -0.86, 0.51, 1039.32, 371.14)"> </text>
      <text class="cls-26" transform="translate(1044.7 380.2) rotate(59.4)"> </text>
      <text class="cls-26" transform="matrix(0.51, 0.86, -0.86, 0.51, 1050.02, 389.23)">v</text>
      <text class="cls-26" transform="translate(1060.2 406.4) rotate(59.4)">i</text>
      <text class="cls-26" transform="matrix(0.51, 0.86, -0.86, 0.51, 1066.56, 417.18)">s</text>
      <text class="cls-26" transform="translate(1076.3 433.7) rotate(59.4)">u</text>
      <text class="cls-26" transform="matrix(0.51, 0.86, -0.86, 0.51, 1087.46, 452.52)">a</text>
      <text class="cls-26" transform="matrix(0.51, 0.86, -0.86, 0.51, 1098.03, 470.38)">l</text>
      <text class="cls-26" transform="translate(1104.4 481.1) rotate(59.4)"> </text>
      <text class="cls-26" transform="translate(1109.7 490.2) rotate(59.4)">e</text>
      <text class="cls-26" transform="translate(1120 507.6) rotate(59.4)">ff</text>
      <text class="cls-26" transform="matrix(0.51, 0.86, -0.86, 0.51, 1135.83, 534.27)">e</text>
      <text class="cls-26" transform="translate(1146.3 552) rotate(59.4)">c</text>
      <text class="cls-26" transform="matrix(0.51, 0.86, -0.86, 0.51, 1155.87, 568.15)">t</text>
      <text class="cls-26" transform="translate(1165.5 584.5) rotate(59.4)">s</text>
      <text class="cls-26" transform="translate(1174.1 599) rotate(59.4)">,</text>
      <text class="cls-26" transform="translate(1177.6 609.1) rotate(90.1)"> <tspan x="10.5" y="0"> </tspan><tspan x="21" y="0">g</tspan><tspan x="42.9" y="0">a</tspan><tspan x="63.7" y="0">m</tspan><tspan x="94" y="0">e</tspan></text>
      <polyline class="cls-27" points="569.4 352.6 779.3 352.6 960.4 456.6"/>
      <text class="cls-28" transform="translate(584.3 340) rotate(0)"> </text>
      <text class="cls-28" transform="translate(593.8 340) rotate(0)"> </text>
      <text class="cls-28" transform="translate(603.2 340) rotate(0)"> </text>
      <text class="cls-28" transform="matrix(1, 0, 0, 1, 612.68, 339.98)"> </text>
      <text class="cls-28" transform="matrix(1, 0, 0, 1, 622.14, 339.98)"> </text>
      <text class="cls-28" transform="translate(631.6 340) rotate(0)"> </text>
      <text class="cls-28" transform="matrix(1, 0, 0, 1, 641.04, 339.97)"> </text>
      <text class="cls-28" transform="matrix(1, 0, 0, 1, 650.47, 339.96)"> </text>
      <text class="cls-28" transform="translate(659.9 340) rotate(0)"> </text>
      <text class="cls-28" transform="matrix(1, 0, 0, 1, 669.38, 339.95)"> </text>
      <text class="cls-28" transform="translate(678.8 340) rotate(0)"> </text>
      <text class="cls-28" transform="translate(688.3 339.9) rotate(0)"> </text>
      <text class="cls-28" transform="translate(697.7 339.9) rotate(0)"> </text>
      <text class="cls-28" transform="matrix(1, 0, 0, 1, 707.2, 339.94)"> </text>
      <text class="cls-28" transform="translate(716.6 339.9) rotate(0)"> </text>
      <text class="cls-28" transform="translate(726.1 339.9) rotate(0)"> </text>
      <text class="cls-28" transform="translate(735.5 339.9) rotate(0)">U</text>
      <text class="cls-28" transform="matrix(1, 0, 0, 1, 757.98, 339.91)">X</text>
      <text class="cls-28" transform="translate(777.9 338.5) rotate(29.9)"> </text>
      <text class="cls-28" transform="matrix(0.87, 0.5, -0.5, 0.87, 785.7, 342.98)">d</text>
      <text class="cls-28" transform="translate(803.2 353.1) rotate(29.9)">e</text>
      <text class="cls-28" transform="translate(819.1 362.2) rotate(29.9)">s</text>
      <text class="cls-28" transform="matrix(0.87, 0.5, -0.5, 0.87, 834.22, 370.88)">i</text>
      <text class="cls-28" transform="matrix(0.87, 0.5, -0.5, 0.87, 843.64, 376.3)">g</text>
      <text class="cls-28" transform="translate(860.7 386.1) rotate(29.9)">n</text>
      <polyline class="cls-29" points="559.8 1161.1 787.9 1161.1 979.5 1050.3"/>
      <text class="cls-30" transform="translate(603.6 1204.5)">C<tspan x="21.8" y="0">S</tspan><tspan x="41.5" y="0">S</tspan><tspan x="61.9" y="0"> </tspan><tspan x="71.8" y="0">a</tspan><tspan x="91.5" y="0">n</tspan><tspan x="112.4" y="0">d</tspan><tspan x="133.6" y="0"> </tspan><tspan x="143.6" y="0">J</tspan><tspan x="162.7" y="0">S</tspan><tspan x="183.1" y="0"> </tspan></text>
      <text class="cls-30" transform="translate(804.7 1203.7) rotate(-29.9)">a</text>
      <text class="cls-30" transform="translate(821.7 1193.9) rotate(-29.9)">n</text>
      <text class="cls-30" transform="translate(839.9 1183.5) rotate(-29.9)">i</text>
      <text class="cls-30" transform="matrix(0.87, -0.5, 0.5, 0.87, 850.12, 1177.59)">m</text>
      <text class="cls-30" transform="matrix(0.87, -0.5, 0.5, 0.87, 874.97, 1163.3)">a</text>
      <text class="cls-30" transform="matrix(0.87, -0.5, 0.5, 0.87, 891.08, 1154.03)">t</text>
      <text class="cls-30" transform="matrix(0.87, -0.5, 0.5, 0.87, 906.95, 1144.9)">i</text>
      <text class="cls-30" transform="translate(917.2 1139) rotate(-29.9)">o</text>
      <text class="cls-30" transform="translate(934.6 1129) rotate(-29.9)">n</text>
      <text class="cls-31" transform="translate(677.3 685.1) rotate(6.7)"> </text>
      <text class="cls-31" transform="translate(683.9 685.9) rotate(13.2)"> </text>
      <text class="cls-31" transform="matrix(0.92, 0.39, -0.39, 0.92, 690.23, 686.95)">n</text>
      <text class="cls-31" transform="translate(703.1 692.3) rotate(36.7)">p</text>
      <text class="cls-31" transform="matrix(0.61, 0.8, -0.8, 0.61, 714.63, 700.28)">m</text>
      <text class="cls-31" transform="translate(725.9 716.2) rotate(65.1)"> </text>
      <text class="cls-31" transform="matrix(0.32, 0.95, -0.95, 0.32, 728.76, 722.15)"> </text>
      <text class="cls-31" transform="translate(730.9 728.4) rotate(78.1)"> </text>
      <text class="cls-31" transform="matrix(0.1, 1, -1, 0.1, 732.26, 734.88)"> </text>
      <text class="cls-31" transform="translate(733.3 741.2) rotate(94.8)">R</text>
      <text class="cls-31" transform="matrix(-0.3, 0.95, -0.95, -0.3, 732.17, 755.58)">e</text>
      <text class="cls-31" transform="translate(728.4 767.8) rotate(120.2)">a</text>
      <text class="cls-31" transform="translate(721.8 779.1) rotate(132.3)">c</text>
      <text class="cls-31" transform="matrix(-0.81, 0.59, -0.59, -0.81, 713.92, 787.96)">t</text>
      <text class="cls-31" transform="translate(703.8 795.1) rotate(153)"> </text>
      <text class="cls-31" transform="translate(697.9 798.2) rotate(159.4)"> </text>
      <text class="cls-31" transform="translate(691.8 800.5) rotate(165.9)"> </text>
      <text class="cls-31" transform="matrix(-0.99, 0.13, -0.13, -0.99, 685.35, 802.14)"> </text>
      <text class="cls-31" transform="matrix(-1, -0.05, 0.05, -1, 679.09, 803.48)">A</text>
      <text class="cls-31" transform="translate(663.8 802.8) rotate(-163.1)">n</text>
      <text class="cls-31" transform="translate(650.4 798.8) rotate(-149.6)">g</text>
      <text class="cls-31" transform="translate(638.4 791.9) rotate(-136.3)">u</text>
      <text class="cls-31" transform="matrix(-0.59, -0.81, 0.81, -0.59, 628.46, 782.05)">l</text>
      <text class="cls-31" transform="matrix(-0.43, -0.9, 0.9, -0.43, 623.7, 775.99)">a</text>
      <text class="cls-31" transform="translate(618 764.1) rotate(-103.8)">r</text>
      <g class="cls-14">
        <polygon class="cls-32" points="749 1022.1 599.8 1022.1 598.1 1021.2 594.8 1033.1 566.9 1135.2 567.6 1135.6 777.8 1135.6 959 1031 877.2 948.1 749 1022.1"/>
      </g>
      <polyline class="cls-33" points="589.4 1070.6 766 1070.5 916.8 983.5 1003.9 833.8 1002.7 658.5 916.8 507.7 766 421.8"/>
    </g>
  </g>
</svg>
