<svg xmlns="http://www.w3.org/2000/svg" viewBox="0 0 684.2 592.5">
  <defs>
    <style>
      .cls-1 {
        fill: #f4edba;
      }

      .cls-2 {
        fill: #d6ce41;
      }

      .cls-11, .cls-2, .cls-3, .cls-4, .cls-6 {
        opacity: 0.9;
      }

      .cls-3 {
        fill: #366;
      }

      .cls-4 {
        fill: #669;
      }

      .cls-5 {
        fill: #daf2f0;
      }

      .cls-6 {
        fill: #799bb4;
      }

      .cls-7 {
        fill: #9b6950;
        opacity: 0.8;
      }

      .cls-8 {
        opacity: 0.95;
      }

      .cls-9 {
        fill: #fff;
      }

      .cls-10 {
        fill: #131313;
      }

      .cls-12, .cls-13 {
        fill: none;
        stroke-miterlimit: 10;
      }

      .cls-12 {
        stroke: #d6ce41;
      }

      .cls-13 {
        stroke: #fff;
        stroke-width: 3px;
      }
    </style>
  </defs>
  <title>skillset</title>
  <g id="Layer_2" data-name="Layer 2">
    <g id="pies">
      <polygon class="cls-1" points="684.2 332 603 472.6 603 472.6 582.4 508.3 563.7 540.6 300.8 332 491.3 0 492.5 0 506.4 24.1 507.1 25.3 558.9 115 684.2 332"/>
      <polygon class="cls-2" points="600.9 332 537.4 442 537.4 442.1 521.2 470 300.5 332.2 462.3 91.9 502.8 162.2 600.9 332"/>
      <polygon class="cls-3" points="406.6 173.5 300.7 331.7 300.1 332 300.1 332 299.6 332.2 211.9 376.5 211.9 376.5 147.9 408.8 103.5 331.9 202.2 161.1 399.4 161.1 406.6 173.5"/>
      <polygon class="cls-4" points="465.5 193.4 300.8 331.9 358.5 120 423.1 120 432 135.4 465.5 193.4"/>
      <polygon class="cls-5" points="300.2 331.5 299.5 332.3 185.4 478.2 146.1 410.2 210.8 377.2 300.2 331.5"/>
      <polygon class="cls-6" points="300.2 331.5 300.1 332.1 263.3 505 200.9 505 185.4 478.2 299.5 332.3 300.2 331.5"/>
      <polygon class="cls-7" points="498.2 423.8 498.2 423.8 426 548.8 253.8 549 300.7 332 498.2 423.8"/>
      <polygon class="cls-9" points="327.3 286.1 274.3 286.1 247.8 332 274.3 377.9 327.3 377.9 353.8 332 327.3 286.1"/>
      <g class="cls-8">
        <polygon class="cls-9" points="276.5 374.1 252.1 332 276.5 289.9 325.1 289.9 349.4 332 325.1 374.1 276.5 374.1"/>
        <path class="cls-10" d="M324.8,290.4,348.9,332l-24.1,41.6h-48L252.7,332l24.1-41.6h48m.6-1H276.2l-.3.5-24,41.6-.3.5.3.5,24,41.6.3.5h49.2l.3-.5,24-41.6.3-.5-.3-.5-24-41.6-.3-.5Z"/>
      </g>
      <g class="cls-11">
        <polygon class="cls-10" points="282.8 363.2 264.7 332 282.8 300.8 318.8 300.8 336.9 332 318.8 363.2 282.8 363.2"/>
        <path class="cls-9" d="M318,302.3,335.1,332,318,361.7H283.6L266.5,332l17.1-29.7H318m1.7-3H281.9l-.9,1.5-17.1,29.7L263,332l.9,1.5L281,363.2l.9,1.5h37.8l.9-1.5,17.1-29.7.9-1.5-.9-1.5-17.1-29.7-.9-1.5Z"/>
      </g>
      <polygon class="cls-12" points="601 332 537.5 442.1 537.5 442.1 521.3 470 506.7 495.4 450.9 592 150.7 592 127.5 551.8 127.4 551.7 68.4 449.5 68.2 449 0.6 332 150.7 72 450.9 72 461.8 90.9 462.3 91.8 502.9 162.1 601 332"/>
      <polygon class="cls-13" points="536.8 331.9 486.8 418.4 486.8 418.4 474.2 440.4 462.6 460.3 418.8 536.3 182.8 536.3 164.5 504.6 164.5 504.6 118.1 424.2 117.9 423.9 64.8 331.9 182.8 127.5 418.8 127.5 427.4 142.4 427.8 143.1 459.7 198.3 536.8 331.9"/>
      <polygon class="cls-13" points="193.9 517 175.7 485.5 175.6 485.2 87 331.9 193.9 146.8 407.7 146.8 514.5 331.9 448 447.1 407.7 517 193.9 517"/>
      <polygon class="cls-13" points="193.9 517 175.7 485.5 175.6 485.2 87 331.9 193.9 146.8 407.7 146.8 514.5 331.9 448 447.1 407.7 517 193.9 517"/>
      <polygon class="cls-13" points="199.6 507.1 184.1 480.2 98.4 331.9 199.6 156.6 402 156.6 503.1 331.9 439.5 442.1 402 507.1 199.6 507.1"/>
      <polygon class="cls-13" points="199.6 507.1 184.1 480.2 98.4 331.9 199.6 156.6 402 156.6 503.1 331.9 439.5 442.1 402 507.1 199.6 507.1"/>
      <polygon class="cls-13" points="205.3 497.3 192.6 475.3 109.8 331.9 205.3 166.5 396.3 166.5 491.7 331.9 430.9 437.2 396.3 497.3 205.3 497.3"/>
      <polygon class="cls-13" points="205.3 497.3 192.6 475.3 109.8 331.9 205.3 166.5 396.3 166.5 491.7 331.9 430.9 437.2 396.3 497.3 205.3 497.3"/>
      <polygon class="cls-13" points="211 487.4 201.2 470.4 121.3 331.9 211 176.4 390.6 176.4 480.3 331.9 390.6 487.4 211 487.4"/>
      <polygon class="cls-13" points="211 487.4 201.2 470.4 121.3 331.9 211 176.4 390.6 176.4 480.3 331.9 390.6 487.4 211 487.4"/>
      <polygon class="cls-13" points="216.7 477.5 132.7 331.9 216.7 186.3 384.9 186.3 468.9 331.9 384.9 477.5 216.7 477.5"/>
      <polygon class="cls-13" points="216.7 477.5 132.7 331.9 216.7 186.3 384.9 186.3 468.9 331.9 384.9 477.5 216.7 477.5"/>
      <polygon class="cls-13" points="222.4 467.6 144.1 331.9 222.4 196.1 379.2 196.1 457.5 331.9 379.2 467.6 222.4 467.6"/>
      <polygon class="cls-13" points="525.4 331.9 477.8 414.3 477.8 414.3 465.8 435.2 454.8 454.1 413.1 526.4 188.5 526.4 171.1 496.3 171.1 496.2 126.9 419.8 126.7 419.4 76.2 331.9 188.5 137.4 413.1 137.4 421.3 151.5 421.6 152.2 452 204.8 525.4 331.9"/>
    </g>
  </g>
</svg>
