<svg xmlns="http://www.w3.org/2000/svg" viewBox="0 0 1149.3 1149.3">
  <defs>
    <style>
      .cls-1, .cls-2 {
        fill: #fff;
      }

      .cls-1 {
        stroke: #000;
      }

      .cls-1, .cls-11, .cls-14, .cls-19, .cls-21, .cls-23, .cls-24, .cls-25, .cls-26, .cls-27, .cls-28, .cls-29, .cls-30, .cls-31 {
        stroke-miterlimit: 10;
      }

      .cls-22, .cls-3 {
        fill: #d6ce41;
      }

      .cls-13, .cls-18, .cls-21, .cls-22, .cls-3, .cls-32, .cls-4 {
        opacity: 0.9;
      }

      .cls-12, .cls-20, .cls-4 {
        fill: #366;
      }

      .cls-11, .cls-24, .cls-5 {
        fill: #daf2f0;
      }

      .cls-15, .cls-19, .cls-21, .cls-23, .cls-25, .cls-27, .cls-29, .cls-31, .cls-6 {
        fill: none;
      }

      .cls-10, .cls-26, .cls-7 {
        fill: #9b6950;
      }

      .cls-7 {
        opacity: 0.8;
      }

      .cls-28, .cls-8 {
        fill: #f4edba;
      }

      .cls-14, .cls-30, .cls-9 {
        fill: #669;
      }

      .cls-11 {
        stroke: #fff;
        stroke-width: 11px;
      }

      .cls-14, .cls-29, .cls-30 {
        stroke: #669;
      }

      .cls-14, .cls-19, .cls-21, .cls-23, .cls-25, .cls-27, .cls-29, .cls-31 {
        stroke-width: 3px;
      }

      .cls-15 {
        stroke: #333;
        stroke-linejoin: round;
      }

      .cls-15, .cls-19, .cls-21, .cls-23, .cls-25, .cls-27 {
        stroke-linecap: round;
      }

      .cls-15, .cls-30 {
        stroke-width: 2px;
      }

      .cls-16, .cls-33 {
        fill: #333;
      }

      .cls-17 {
        opacity: 0.7;
      }

      .cls-18, .cls-32 {
        fill: #9fb230;
      }

      .cls-19 {
        stroke: #366;
      }

      .cls-20, .cls-26, .cls-30, .cls-32 {
        font-size: 35px;
      }

      .cls-20, .cls-22, .cls-24, .cls-26, .cls-28, .cls-32, .cls-33 {
        font-family: RoundedMplus1c-Bold, "Rounded Mplus 1c Bold";
        font-weight: 700;
      }

      .cls-21 {
        stroke: #d6ce41;
      }

      .cls-22 {
        font-size: 35.03px;
      }

      .cls-23, .cls-24 {
        stroke: #daf2f0;
      }

      .cls-24 {
        font-size: 32px;
        stroke-width: 0.75px;
      }

      .cls-25, .cls-26 {
        stroke: #9b6950;
      }

      .cls-27, .cls-28 {
        stroke: #f4edba;
      }

      .cls-28 {
        font-size: 37px;
      }

      .cls-30 {
        font-family: RoundedMplus1c-Regular, "Rounded Mplus 1c";
      }

      .cls-31 {
        stroke: #9fb230;
      }

      .cls-33 {
        font-size: 25px;
      }
    </style>
  </defs>
  <title>skillset_3</title>
  <g id="Layer_2" data-name="Layer 2">
    <g id="Layer_3" data-name="Layer 3">
      <polygon class="cls-1" points="599 474.8 547.2 474.8 502.4 500.7 476.5 545.5 476.5 597.3 502.4 642.1 547.2 668 599 668 643.8 642.1 669.7 597.3 669.7 545.5 643.8 500.7 599 474.8"/>
      <polygon class="cls-2" points="728.6 0 420.7 0 154 154 0 420.7 0 728.6 154 995.3 420.7 1149.3 728.6 1149.3 995.3 995.3 1149.3 728.6 1149.3 420.7 995.3 154 728.6 0"/>
    </g>
    <g id="shapes">
      <g>
        <polyline class="cls-2" points="781.1 370.1 856.1 500.1 856.1 650.1 781.1 779.1 651.1 854.1 501.1 854.1 781.1 370.1"/>
        <polygon class="cls-3" points="779.1 368.1 853.1 498.1 854.1 649.1 779.1 778.1 649.1 853.1 499.1 853.1 649.1 294.1 779.1 368.1"/>
        <polygon class="cls-2" points="651.3 295.2 501.4 295.2 371.6 370.1 296.7 499.9 296.7 649.8 371.6 779.5 501.4 854.5 651.3 854.5 781 779.5 856 649.8 856 499.9 781 370.1 651.3 295.2"/>
        <polygon class="cls-2" points="651.3 295.2 501.4 295.2 371.6 370.1 296.7 499.9 296.7 649.8 371.6 779.5 501.4 854.5 651.3 854.5 781 779.5 856 649.8 856 499.9 781 370.1 651.3 295.2"/>
        <polygon class="cls-4" points="855.6 649.6 296.6 499.6 371.6 369.6 501.6 295.6 651.6 295.6 780.6 369.6 855.6 499.6 855.6 649.6"/>
        <polygon class="cls-5" points="297.1 499.1 575.1 575.1 296.7 649.8 297.1 499.1"/>
        <g>
          <polygon class="cls-6" points="777.4 371.9 648.9 297.6 500.4 297.6 371.9 371.9 297.6 500.4 297.6 648.8 575 575.2 572.8 577.4 575.1 575.1 501.5 851.6 648.9 851.6 777.4 777.4 851.6 648.9 851.6 500.4 777.4 371.9"/>
          <polygon class="cls-7" points="572.8 577.4 575 575.2 297.6 648.8 297.6 648.9 371.9 777.4 500.4 851.6 501.5 851.6 575.1 575.1 572.8 577.4"/>
        </g>
        <g>
          <polygon class="cls-6" points="575.3 574.8 574.1 575.1 575.3 574.8 574.6 574.6 680.6 183.5 679.9 183.1 470.4 183.1 288.9 287.9 184.1 469.4 184.1 678.9 288.9 860.4 470.4 965.1 679.9 965.1 861.4 860.4 965.9 679.3 575.3 574.8"/>
          <polygon class="cls-8" points="575.3 574.8 574.1 575.1 575.3 574.8 965.9 679.3 966.1 678.9 966.1 469.4 861.4 287.9 680.6 183.5 574.6 574.6 575.3 574.8"/>
        </g>
        <g>
          <polygon class="cls-6" points="819 331.2 818.5 330.9 575.7 574.5 575.6 574.6 575.6 574.6 575 575.2 575.4 573.7 489.4 242.1 486.5 242.1 332.2 331.2 243.1 485.5 243.1 663.7 332.2 818 486.5 907.1 664.7 907.1 819 818 908.1 663.7 908.1 485.5 819 331.2"/>
          <polygon class="cls-9" points="575.6 574.6 575.7 574.5 575.6 574.6 575.6 574.6"/>
          <polygon class="cls-9" points="575 575.2 575.6 574.6 575.4 573.7 575 575.2"/>
          <polygon class="cls-9" points="665.5 242.6 575.4 573.7 575.6 574.6 575.7 574.5 665.6 242.6 665.5 242.6"/>
        </g>
        <polyline class="cls-2" points="781.1 370.1 856.1 500.1 856.1 650.1 781.1 779.1 651.1 854.1 501.1 854.1 781.1 370.1"/>
        <polygon class="cls-10" points="855.6 649.6 296.6 499.6 371.6 369.6 501.6 295.6 651.6 295.6 780.6 369.6 855.6 499.6 855.6 649.6"/>
        <polygon class="cls-11" points="289.1 495.1 567.1 571.1 288.7 645.8 289.1 495.1"/>
        <g>
          <polygon class="cls-6" points="776.4 370.9 647.9 296.6 499.4 296.6 370.9 370.9 296.6 499.4 296.6 647.8 574 574.2 571.8 576.4 574.1 574.1 500.5 850.6 647.9 850.6 776.4 776.4 850.6 647.9 850.6 499.4 776.4 370.9"/>
          <polygon class="cls-12" points="571.8 577.4 574 575.2 296.6 648.8 296.6 648.9 370.9 777.4 499.4 851.6 500.5 851.6 574.1 575.1 571.8 577.4"/>
        </g>
        <g>
          <polygon class="cls-6" points="575.3 574.9 574 575.3 575.3 574.9 574.6 574.7 696.5 124.6 695.7 124.1 454.6 124.1 245.7 244.7 125.1 453.6 125.1 694.7 245.7 903.6 454.6 1024.1 695.7 1024.1 904.6 903.6 1024.8 695.2 575.3 574.9"/>
          <polygon class="cls-8" points="575.3 574.9 574 575.3 575.3 574.9 1024.8 695.2 1025.1 694.7 1025.1 453.6 904.6 244.7 696.5 124.6 574.6 574.7 575.3 574.9"/>
        </g>
        <g class="cls-13">
          <polygon class="cls-6" points="843.9 306.3 843.4 306 575.7 574.5 575.6 574.6 575.6 574.6 574.9 575.3 575.4 573.6 480.6 208.1 477.4 208.1 307.3 306.3 209.1 476.4 209.1 672.8 307.3 842.9 477.4 941.1 673.8 941.1 843.9 842.9 942.1 672.8 942.1 476.4 843.9 306.3"/>
          <polygon class="cls-9" points="575.6 574.6 575.7 574.5 575.6 574.6 575.6 574.6"/>
          <polygon class="cls-9" points="574.9 575.3 575.6 574.6 575.4 573.6 574.9 575.3"/>
          <g>
            <polygon class="cls-14" points="673.8 208.1 480.6 208.1 575.4 573.6 674.7 208.6 673.8 208.1"/>
            <polygon class="cls-14" points="674.8 208.7 575.7 574.5 843.4 306 674.8 208.7"/>
          </g>
          <polygon class="cls-9" points="674.7 208.6 575.4 573.6 575.6 574.6 575.7 574.5 674.8 208.7 674.7 208.6"/>
        </g>
        <polyline class="cls-12" points="573.1 575.1 648.3 852.1 499.9 852.1 571.2 578.1"/>
        <polygon class="cls-12" points="648.3 852 776.7 779 574.4 575.4 574.2 578.9 573.1 575.1 571.2 578.1 499.9 852.1 647.6 852.1 647.7 852.4 648.1 852.1 648.3 852.1 648.3 852"/>
        <polygon class="cls-3" points="781.1 369.1 855.1 499.1 856.1 650.1 781.1 779.1 651.1 854.1 501.1 854.1 651.1 295.1 781.1 369.1"/>
      </g>
      <polygon class="cls-2" points="598.3 490.1 553 490.1 513.8 512.8 491.1 552 491.1 597.3 513.8 636.5 553 659.1 598.3 659.1 637.5 636.5 660.1 597.3 660.1 552 637.5 512.8 598.3 490.1"/>
      <polyline class="cls-15" points="533.1 586 544.5 605.8 564.3 617.1 587 617.1 606.8 605.8 618.1 586 618.1 563.3 606.8 543.5 587 532.1"/>
      <polygon class="cls-16" points="542.1 583.6 551.1 599.2 566.7 608.1 584.6 608.1 600.2 599.2 609.1 583.6 609.1 565.7 600.2 550.1 584.6 541.1 575.1 575.1 542.1 583.6"/>
      <g class="cls-17">
        <polygon class="cls-18" points="778.5 779.1 650.3 853.1 501 853.1 499.4 852.2 496.1 864.1 457.9 1003.7 493 1004.1 688.5 1005.3 688.6 1005.4 719.1 988.2 889 891.1 778.5 779.1"/>
      </g>
      <polyline class="cls-19" points="278 654.9 353.5 792.9 494.6 877.5 658.2 876.7 792.5 799.6"/>
      <text class="cls-20" transform="translate(254 679.9) rotate(61.3)"> </text>
      <text class="cls-20" transform="matrix(0.48, 0.88, -0.88, 0.48, 258.81, 688.6)"> </text>
      <text class="cls-20" transform="matrix(0.48, 0.88, -0.88, 0.48, 263.58, 697.32)">H</text>
      <text class="cls-20" transform="translate(275.4 718.9) rotate(61.3)">T</text>
      <text class="cls-20" transform="matrix(0.48, 0.88, -0.88, 0.48, 286.29, 738.85)">M</text>
      <text class="cls-20" transform="translate(300.4 764.6) rotate(61.3)">L</text>
      <text class="cls-20" transform="translate(310.4 783) rotate(61.3)"> </text>
      <text class="cls-20" transform="translate(315.2 791.7) rotate(61.3)"> </text>
      <text class="cls-20" transform="translate(320 800.4) rotate(61.3)"> </text>
      <text class="cls-20" transform="translate(328.1 817.1) rotate(30.9)">C</text>
      <text class="cls-20" transform="matrix(0.86, 0.51, -0.51, 0.86, 346.92, 828.37)">S</text>
      <text class="cls-20" transform="matrix(0.86, 0.51, -0.51, 0.86, 363.8, 838.49)">S</text>
      <text class="cls-20" transform="matrix(0.86, 0.51, -0.51, 0.86, 380.98, 848.78)">(</text>
      <text class="cls-20" transform="matrix(0.86, 0.51, -0.51, 0.86, 391.9, 855.33)">S</text>
      <text class="cls-20" transform="matrix(0.86, 0.51, -0.51, 0.86, 408.78, 865.45)">A</text>
      <text class="cls-20" transform="matrix(0.86, 0.51, -0.51, 0.86, 427.76, 876.83)">S</text>
      <text class="cls-20" transform="translate(444.6 887) rotate(30.9)">S</text>
      <text class="cls-20" transform="translate(461.7 897.2) rotate(30.9)">)</text>
      <polyline class="cls-21" points="490.6 901.6 667.2 901.5 818.1 814.5 905.1 664.8 904 489.5 818.1 338.6 667.2 252.8"/>
      <text class="cls-22" transform="matrix(0.5, -0.86, 0.86, 0.5, 850.86, 831.64)">v</text>
      <text class="cls-22" transform="matrix(0.5, -0.86, 0.86, 0.5, 860.2, 815.58)">a</text>
      <text class="cls-22" transform="translate(870.1 798.6) rotate(-59.8)">n</text>
      <text class="cls-22" transform="matrix(0.5, -0.86, 0.86, 0.5, 880.6, 780.49)">i</text>
      <text class="cls-22" transform="matrix(0.5, -0.86, 0.86, 0.5, 886.19, 770.87)">l</text>
      <text class="cls-22" transform="translate(891.8 761.2) rotate(-59.8)">l</text>
      <text class="cls-22" transform="translate(897.7 751) rotate(-59.8)">a</text>
      <text class="cls-22" transform="translate(907.6 734) rotate(-59.8)"> </text>
      <text class="cls-22" transform="translate(912.6 725.4) rotate(-59.8)">J</text>
      <text class="cls-22" transform="translate(922.2 708.9) rotate(-59.8)">S</text>
      <text class="cls-22" transform="matrix(0.5, -0.86, 0.86, 0.5, 932.56, 691.11)"> </text>
      <text class="cls-22" transform="translate(938.6 674.5) rotate(-90.4)">&amp;</text>
      <text class="cls-22" transform="translate(938.5 649.1) rotate(-90.4)"> </text>
      <text class="cls-22" transform="translate(938.4 639.1) rotate(-90.4)">l</text>
      <text class="cls-22" transform="translate(938.3 628) rotate(-90.4)">i</text>
      <text class="cls-22" transform="translate(938.2 616.1) rotate(-90.4)">b</text>
      <text class="cls-22" transform="translate(938.1 594.9) rotate(-90.4)">r</text>
      <text class="cls-22" transform="translate(938 578.9) rotate(-90.4)">a</text>
      <text class="cls-22" transform="matrix(-0.01, -1, 1, -0.01, 937.87, 559.29)">r</text>
      <text class="cls-22" transform="translate(937.8 542.3) rotate(-90.4)">i</text>
      <text class="cls-22" transform="matrix(-0.01, -1, 1, -0.01, 937.68, 530.46)">e</text>
      <text class="cls-22" transform="matrix(-0.49, -0.87, 0.87, -0.49, 939.51, 503.62)">s</text>
      <line class="cls-23" x1="275.1" y1="642.6" x2="276.1" y2="499.6"/>
      <text class="cls-24" transform="matrix(0.01, -1, 1, 0.01, 263.15, 637.58)">b</text>
      <text class="cls-24" transform="matrix(0.01, -1, 1, 0.01, 263.28, 618.16)">u</text>
      <text class="cls-24" transform="matrix(0.01, -1, 1, 0.01, 263.41, 599.25)">s</text>
      <text class="cls-24" transform="translate(263.5 582.7) rotate(-89.6)">i</text>
      <text class="cls-24" transform="matrix(0.01, -1, 1, 0.01, 263.61, 571.84)">n</text>
      <text class="cls-24" transform="translate(263.7 552.7) rotate(-89.6)">e</text>
      <text class="cls-24" transform="translate(263.9 535.3) rotate(-89.6)">s</text>
      <text class="cls-24" transform="translate(264 519) rotate(-89.6)">s</text>
      <polyline class="cls-25" points="656.3 274.3 495.6 273.6 355.6 351.6 278.6 485.6"/>
      <text class="cls-26" transform="matrix(0.5, -0.87, 0.87, 0.5, 266.64, 476.63)">U</text>
      <text class="cls-26" transform="matrix(0.5, -0.87, 0.87, 0.5, 278.46, 456.06)">I</text>
      <text class="cls-26" transform="matrix(0.5, -0.87, 0.87, 0.5, 284.61, 445.37)"> </text>
      <text class="cls-26" transform="matrix(0.5, -0.87, 0.87, 0.5, 289.55, 436.76)">d</text>
      <text class="cls-26" transform="translate(300.1 418.3) rotate(-60.1)">e</text>
      <text class="cls-26" transform="translate(309.7 401.8) rotate(-60.1)">s</text>
      <text class="cls-26" transform="matrix(0.5, -0.87, 0.87, 0.5, 318.7, 386.03)">i</text>
      <text class="cls-26" transform="translate(324.6 375.8) rotate(-60.1)">g</text>
      <text class="cls-26" transform="translate(334.9 357.8) rotate(-60.1)">n</text>
      <text class="cls-26" transform="translate(344.6 342.1) rotate(-29.1)"> </text>
      <text class="cls-26" transform="translate(353.3 337.3) rotate(-29.1)"> </text>
      <text class="cls-26" transform="matrix(0.87, -0.49, 0.49, 0.87, 361.97, 332.43)">A</text>
      <text class="cls-26" transform="matrix(0.87, -0.49, 0.49, 0.87, 381.93, 321.3)">i</text>
      <text class="cls-26" transform="matrix(0.87, -0.49, 0.49, 0.87, 392.27, 315.54)"> </text>
      <text class="cls-26" transform="translate(401 310.7) rotate(-29.1)">X</text>
      <text class="cls-26" transform="matrix(0.87, -0.49, 0.49, 0.87, 419.05, 300.62)">d</text>
      <polyline class="cls-27" points="703.1 87.1 932.6 213.6 1066.1 438.1 1066.1 703.1"/>
      <text class="cls-28" transform="matrix(0.87, 0.48, -0.48, 0.87, 771.52, 108.33)">A</text>
      <text class="cls-28" transform="matrix(0.87, 0.48, -0.48, 0.87, 792.64, 120.03)">n</text>
      <text class="cls-28" transform="matrix(0.87, 0.48, -0.48, 0.87, 811.98, 130.75)">i</text>
      <text class="cls-28" transform="translate(822.9 136.8) rotate(29)">m</text>
      <text class="cls-28" transform="translate(849.4 151.5) rotate(29)">a</text>
      <text class="cls-28" transform="translate(866.6 161) rotate(29)">t</text>
      <text class="cls-28" transform="translate(883.5 170.4) rotate(29)">i</text>
      <text class="cls-28" transform="translate(894.5 176.5) rotate(29)">o</text>
      <text class="cls-28" transform="translate(913.1 186.8) rotate(29)">n</text>
      <text class="cls-28" transform="translate(932.4 197.5) rotate(29)"> </text>
      <text class="cls-28" transform="matrix(0.51, 0.86, -0.86, 0.51, 939.86, 200.99)"> </text>
      <text class="cls-28" transform="translate(945.2 210) rotate(59.4)">v</text>
      <text class="cls-28" transform="translate(955.4 227.2) rotate(59.4)">i</text>
      <text class="cls-28" transform="translate(961.8 238) rotate(59.4)">s</text>
      <text class="cls-28" transform="translate(971.5 254.5) rotate(59.4)">u</text>
      <text class="cls-28" transform="translate(982.6 273.3) rotate(59.4)">a</text>
      <text class="cls-28" transform="matrix(0.51, 0.86, -0.86, 0.51, 993.22, 291.19)">l</text>
      <text class="cls-28" transform="translate(999.6 301.9) rotate(59.4)"> </text>
      <text class="cls-28" transform="translate(1004.9 311) rotate(59.4)">e</text>
      <text class="cls-28" transform="matrix(0.51, 0.86, -0.86, 0.51, 1015.22, 328.37)">ff</text>
      <text class="cls-28" transform="translate(1031 355.1) rotate(59.4)">e</text>
      <text class="cls-28" transform="translate(1041.5 372.8) rotate(59.4)">c</text>
      <text class="cls-28" transform="translate(1051.1 388.9) rotate(59.4)">t</text>
      <text class="cls-28" transform="translate(1060.7 405.3) rotate(59.4)">s</text>
      <text class="cls-28" transform="matrix(0.51, 0.86, -0.86, 0.51, 1070.48, 421.77)"> </text>
      <text class="cls-28" transform="translate(1075.3 429.9) rotate(59.4)"> </text>
      <text class="cls-28" transform="matrix(0, 1, -1, 0, 1078.79, 438.13)">g<tspan x="21.9" y="0">a</tspan><tspan x="42.6" y="0">m</tspan><tspan x="72.9" y="0">e</tspan></text>
      <polyline class="cls-29" points="470.6 183.6 680.6 183.5 861.6 287.6"/>
      <text class="cls-30" transform="translate(485.6 171) rotate(0)"> </text>
      <text class="cls-30" transform="translate(495 171) rotate(0)"> </text>
      <text class="cls-30" transform="translate(504.5 171) rotate(0)"> </text>
      <text class="cls-30" transform="matrix(1, 0, 0, 1, 513.94, 170.97)"> </text>
      <text class="cls-30" transform="matrix(1, 0, 0, 1, 523.4, 170.97)"> </text>
      <text class="cls-30" transform="translate(532.8 171) rotate(0)"> </text>
      <text class="cls-30" transform="matrix(1, 0, 0, 1, 542.3, 170.96)"> </text>
      <text class="cls-30" transform="matrix(1, 0, 0, 1, 551.74, 170.95)"> </text>
      <text class="cls-30" transform="translate(561.2 171) rotate(0)"> </text>
      <text class="cls-30" transform="matrix(1, 0, 0, 1, 570.65, 170.95)"> </text>
      <text class="cls-30" transform="translate(580.1 170.9) rotate(0)"> </text>
      <text class="cls-30" transform="translate(589.5 170.9) rotate(0)"> </text>
      <text class="cls-30" transform="translate(599 170.9) rotate(0)"> </text>
      <text class="cls-30" transform="matrix(1, 0, 0, 1, 608.46, 170.93)"> </text>
      <text class="cls-30" transform="translate(617.9 170.9) rotate(0)"> </text>
      <text class="cls-30" transform="translate(627.3 170.9) rotate(0)"> </text>
      <text class="cls-30" transform="translate(636.8 170.9) rotate(0)">U</text>
      <text class="cls-30" transform="matrix(1, 0, 0, 1, 659.24, 170.91)">X</text>
      <text class="cls-30" transform="translate(679.1 169.5) rotate(29.9)"> </text>
      <text class="cls-30" transform="matrix(0.87, 0.5, -0.5, 0.87, 686.96, 173.97)">d</text>
      <text class="cls-30" transform="translate(704.5 184.1) rotate(29.9)">e</text>
      <text class="cls-30" transform="translate(720.4 193.2) rotate(29.9)">s</text>
      <text class="cls-30" transform="matrix(0.87, 0.5, -0.5, 0.87, 735.48, 201.87)">i</text>
      <text class="cls-30" transform="matrix(0.87, 0.5, -0.5, 0.87, 744.9, 207.29)">g</text>
      <text class="cls-30" transform="translate(762 217.1) rotate(29.9)">n</text>
      <polyline class="cls-31" points="449.1 1032.1 700.2 1032.1 907.5 911.6"/>
      <text class="cls-32" transform="translate(442.1 1072.1)">A<tspan x="22.9" y="0">n</tspan><tspan x="43.8" y="0">i</tspan><tspan x="55.6" y="0">m</tspan><tspan x="84.3" y="0">a</tspan><tspan x="102.9" y="0">t</tspan><tspan x="121.2" y="0">i</tspan><tspan x="133" y="0">o</tspan><tspan x="153.1" y="0">n</tspan><tspan x="174" y="0"> </tspan><tspan x="183.9" y="0">w</tspan><tspan x="211.5" y="0">i</tspan><tspan x="223.3" y="0">t</tspan><tspan x="241.9" y="0">h</tspan></text>
      <text class="cls-32" transform="matrix(0.87, -0.5, 0.5, 0.87, 711.03, 1064.43)"> </text>
      <text class="cls-32" transform="translate(719.7 1059.5) rotate(-29.9)"> </text>
      <text class="cls-32" transform="translate(728.3 1054.5) rotate(-29.9)">C</text>
      <text class="cls-32" transform="translate(747.2 1043.6) rotate(-29.9)">S</text>
      <text class="cls-32" transform="translate(764.3 1033.8) rotate(-29.9)">S</text>
      <text class="cls-32" transform="translate(781.9 1023.7) rotate(-29.9)"> </text>
      <text class="cls-32" transform="translate(790.5 1018.7) rotate(-29.9)">&amp;</text>
      <text class="cls-32" transform="matrix(0.87, -0.5, 0.5, 0.87, 812.54, 1006.06)"> </text>
      <text class="cls-32" transform="matrix(0.87, -0.5, 0.5, 0.87, 821.15, 1001.11)">J</text>
      <text class="cls-32" transform="translate(837.7 991.6) rotate(-29.9)">S</text>
      <text class="cls-33" transform="translate(578.6 516.1) rotate(6.7)"> </text>
      <text class="cls-33" transform="translate(585.2 516.9) rotate(13.2)"> </text>
      <text class="cls-33" transform="matrix(0.92, 0.39, -0.39, 0.92, 591.49, 517.94)">n</text>
      <text class="cls-33" transform="translate(604.4 523.3) rotate(36.7)">p</text>
      <text class="cls-33" transform="matrix(0.61, 0.8, -0.8, 0.61, 615.89, 531.27)">m</text>
      <text class="cls-33" transform="translate(627.2 547.1) rotate(65.1)"> </text>
      <text class="cls-33" transform="matrix(0.32, 0.95, -0.95, 0.32, 630.02, 553.15)"> </text>
      <text class="cls-33" transform="translate(632.1 559.4) rotate(78.1)"> </text>
      <text class="cls-33" transform="matrix(0.1, 1, -1, 0.1, 633.52, 565.87)"> </text>
      <text class="cls-33" transform="translate(634.6 572.2) rotate(94.8)">R</text>
      <text class="cls-33" transform="matrix(-0.3, 0.95, -0.95, -0.3, 633.44, 586.57)">e</text>
      <text class="cls-33" transform="translate(629.7 598.8) rotate(120.2)">a</text>
      <text class="cls-33" transform="translate(623.1 610.1) rotate(132.3)">c</text>
      <text class="cls-33" transform="matrix(-0.81, 0.59, -0.59, -0.81, 615.18, 618.96)">t</text>
      <text class="cls-33" transform="translate(605.1 626.1) rotate(153)"> </text>
      <text class="cls-33" transform="translate(599.2 629.1) rotate(159.4)"> </text>
      <text class="cls-33" transform="translate(593 631.5) rotate(165.9)"> </text>
      <text class="cls-33" transform="matrix(-0.99, 0.13, -0.13, -0.99, 586.61, 633.13)"> </text>
      <text class="cls-33" transform="matrix(-1, -0.05, 0.05, -1, 580.35, 634.47)">A</text>
      <text class="cls-33" transform="translate(565.1 633.8) rotate(-163.1)">n</text>
      <text class="cls-33" transform="translate(551.7 629.8) rotate(-149.6)">g</text>
      <text class="cls-33" transform="translate(539.7 622.9) rotate(-136.3)">u</text>
      <text class="cls-33" transform="matrix(-0.59, -0.81, 0.81, -0.59, 529.73, 613.04)">l</text>
      <text class="cls-33" transform="matrix(-0.43, -0.9, 0.9, -0.43, 524.96, 606.98)">a</text>
      <text class="cls-33" transform="translate(519.3 595.1) rotate(-103.8)">r</text>
    </g>
  </g>
</svg>
