<svg xmlns="http://www.w3.org/2000/svg" viewBox="0 0 1154.6 1154.6">
  <defs>
    <style>
      .cls-1, .cls-2 {
        fill: #fff;
      }

      .cls-1 {
        stroke: #000;
      }

      .cls-1, .cls-11, .cls-14, .cls-17, .cls-20, .cls-21, .cls-22, .cls-23, .cls-24, .cls-25, .cls-26, .cls-27, .cls-32 {
        stroke-miterlimit: 10;
      }

      .cls-19, .cls-3 {
        fill: #d6ce41;
      }

      .cls-13, .cls-19, .cls-29, .cls-3, .cls-31, .cls-32, .cls-4 {
        opacity: 0.9;
      }

      .cls-12, .cls-18, .cls-4 {
        fill: #366;
      }

      .cls-11, .cls-21, .cls-5 {
        fill: #daf2f0;
      }

      .cls-15, .cls-17, .cls-20, .cls-22, .cls-24, .cls-26, .cls-28, .cls-32, .cls-6 {
        fill: none;
      }

      .cls-10, .cls-23, .cls-7 {
        fill: #9b6950;
      }

      .cls-7 {
        opacity: 0.8;
      }

      .cls-25, .cls-8 {
        fill: #f4edba;
      }

      .cls-14, .cls-27, .cls-9 {
        fill: #669;
      }

      .cls-11 {
        stroke: #fff;
        stroke-width: 11px;
      }

      .cls-14, .cls-26, .cls-27 {
        stroke: #669;
      }

      .cls-14, .cls-17, .cls-20, .cls-22, .cls-24, .cls-26, .cls-28, .cls-32 {
        stroke-width: 3px;
      }

      .cls-15 {
        stroke: #333;
      }

      .cls-15, .cls-17, .cls-20, .cls-22, .cls-24, .cls-28, .cls-32 {
        stroke-linecap: round;
      }

      .cls-15, .cls-28 {
        stroke-linejoin: round;
      }

      .cls-15, .cls-27 {
        stroke-width: 2px;
      }

      .cls-16, .cls-30 {
        fill: #333;
      }

      .cls-17 {
        stroke: #366;
      }

      .cls-18, .cls-23, .cls-27, .cls-29 {
        font-size: 35px;
      }

      .cls-18, .cls-19, .cls-21, .cls-23, .cls-25, .cls-29, .cls-30 {
        font-family: RoundedMplus1c-Bold, "Rounded Mplus 1c Bold";
        font-weight: 700;
      }

      .cls-19 {
        font-size: 35.03px;
      }

      .cls-20, .cls-21 {
        stroke: #daf2f0;
      }

      .cls-21 {
        font-size: 32px;
        stroke-width: 0.75px;
      }

      .cls-22, .cls-23 {
        stroke: #9b6950;
      }

      .cls-24, .cls-25 {
        stroke: #f4edba;
      }

      .cls-25 {
        font-size: 37px;
      }

      .cls-27 {
        font-family: RoundedMplus1c-Regular, "Rounded Mplus 1c";
      }

      .cls-28 {
        stroke: #9fb230;
      }

      .cls-29, .cls-31 {
        fill: #9fb230;
      }

      .cls-30 {
        font-size: 25px;
      }

      .cls-32 {
        stroke: #d6ce41;
      }
    </style>
  </defs>
  <title>skillset_7</title>
  <g id="Layer_2" data-name="Layer 2">
    <g id="Layer_3" data-name="Layer 3">
      <polygon class="cls-1" points="591.6 485.5 539.9 485.5 495 511.3 469.1 556.2 469.1 607.9 495 652.8 539.9 678.6 591.6 678.6 636.4 652.8 662.3 607.9 662.3 556.2 636.4 511.3 591.6 485.5"/>
    </g>
    <g id="shapes">
      <polygon class="cls-2" points="0 732 154.7 999.9 422.6 1154.6 732 1154.6 999.9 999.9 1154.6 732 1154.6 422.6 999.9 154.7 732 0 568.7 585.9 0 732"/>
      <g>
        <polyline class="cls-2" points="773.8 380.8 848.8 510.8 848.8 660.8 773.8 789.8 643.8 864.8 493.8 864.8 773.8 380.8"/>
        <polygon class="cls-3" points="771.8 378.8 845.8 508.8 846.8 659.8 771.8 788.8 641.8 863.8 491.8 863.8 641.8 304.8 771.8 378.8"/>
        <polygon class="cls-2" points="643.9 305.8 494.1 305.8 364.3 380.8 289.3 510.5 289.3 660.4 364.3 790.2 494.1 865.1 643.9 865.1 773.7 790.2 848.6 660.4 848.6 510.5 773.7 380.8 643.9 305.8"/>
        <polygon class="cls-2" points="643.9 305.8 494.1 305.8 364.3 380.8 289.3 510.5 289.3 660.4 364.3 790.2 494.1 865.1 643.9 865.1 773.7 790.2 848.6 660.4 848.6 510.5 773.7 380.8 643.9 305.8"/>
        <polygon class="cls-4" points="848.3 660.3 289.3 510.3 364.3 380.3 494.3 306.3 644.3 306.3 773.3 380.3 848.3 510.3 848.3 660.3"/>
        <polygon class="cls-5" points="289.8 509.8 567.8 585.8 289.3 660.4 289.8 509.8"/>
        <g>
          <polygon class="cls-6" points="770.1 382.5 641.5 308.3 493.1 308.3 364.5 382.5 290.3 511.1 290.3 659.5 567.6 585.9 565.5 588.1 567.8 585.8 494.1 862.3 641.5 862.3 770.1 788.1 844.3 659.5 844.3 511.1 770.1 382.5"/>
          <polygon class="cls-7" points="565.5 588.1 567.6 585.9 290.3 659.5 290.3 659.5 364.5 788.1 493.1 862.3 494.1 862.3 567.8 585.8 565.5 588.1"/>
        </g>
        <g>
          <polygon class="cls-6" points="568 585.5 566.8 585.8 568 585.5 567.3 585.3 673.3 194.2 672.6 193.8 463 193.8 281.6 298.6 176.8 480 176.8 689.6 281.6 871 463 975.8 672.6 975.8 854 871 958.5 690 568 585.5"/>
          <polygon class="cls-8" points="568 585.5 566.8 585.8 568 585.5 958.5 690 958.8 689.6 958.8 480 854 298.6 673.3 194.2 567.3 585.3 568 585.5"/>
        </g>
        <g>
          <polygon class="cls-6" points="811.7 341.9 811.2 341.6 568.3 585.2 568.3 585.3 568.3 585.2 567.6 585.9 568 584.3 482.1 252.8 479.2 252.8 324.9 341.9 235.8 496.2 235.8 674.4 324.9 828.7 479.2 917.8 657.4 917.8 811.7 828.7 900.8 674.4 900.8 496.2 811.7 341.9"/>
          <polygon class="cls-9" points="568.3 585.3 568.3 585.2 568.3 585.2 568.3 585.3"/>
          <polygon class="cls-9" points="567.6 585.9 568.3 585.2 568 584.3 567.6 585.9"/>
          <polygon class="cls-9" points="658.1 253.2 568 584.3 568.3 585.2 568.3 585.2 658.3 253.3 658.1 253.2"/>
        </g>
        <polyline class="cls-2" points="773.8 380.8 848.8 510.8 848.8 660.8 773.8 789.8 643.8 864.8 493.8 864.8 773.8 380.8"/>
        <polygon class="cls-10" points="848.3 660.3 289.3 510.3 364.3 380.3 494.3 306.3 644.3 306.3 773.3 380.3 848.3 510.3 848.3 660.3"/>
        <polygon class="cls-11" points="281.8 505.8 559.8 581.8 281.3 656.4 281.8 505.8"/>
        <g>
          <polygon class="cls-6" points="769.1 381.5 640.5 307.3 492.1 307.3 363.5 381.5 289.3 510.1 289.3 658.5 566.6 584.9 564.5 587.1 566.8 584.8 493.1 861.3 640.5 861.3 769.1 787.1 843.3 658.5 843.3 510.1 769.1 381.5"/>
          <polygon class="cls-12" points="564.5 588.1 566.6 585.9 289.3 659.5 289.3 659.5 363.5 788.1 492.1 862.3 493.1 862.3 566.8 585.8 564.5 588.1"/>
        </g>
        <g>
          <polygon class="cls-6" points="568 585.6 566.6 585.9 568 585.6 567.2 585.4 689.2 135.3 688.4 134.8 447.2 134.8 238.4 255.4 117.8 464.2 117.8 705.4 238.4 914.2 447.2 1034.8 688.4 1034.8 897.2 914.2 1017.5 705.9 568 585.6"/>
          <polygon class="cls-8" points="568 585.6 566.6 585.9 568 585.6 1017.5 705.9 1017.8 705.4 1017.8 464.2 897.2 255.4 689.2 135.3 567.2 585.4 568 585.6"/>
        </g>
        <g class="cls-13">
          <polygon class="cls-6" points="836.6 317 836 316.7 568.3 585.2 568.3 585.3 568.3 585.2 567.6 585.9 568 584.2 473.3 218.8 470.1 218.8 300 317 201.8 487.1 201.8 683.5 300 853.6 470.1 951.8 666.5 951.8 836.6 853.6 934.8 683.5 934.8 487.1 836.6 317"/>
          <polygon class="cls-9" points="568.3 585.3 568.3 585.2 568.3 585.2 568.3 585.3"/>
          <polygon class="cls-9" points="567.6 585.9 568.3 585.2 568 584.2 567.6 585.9"/>
          <g>
            <polygon class="cls-14" points="666.5 218.8 473.3 218.8 568 584.2 667.3 219.3 666.5 218.8"/>
            <polygon class="cls-14" points="667.5 219.3 568.3 585.2 836 316.7 667.5 219.3"/>
          </g>
          <polygon class="cls-9" points="667.3 219.3 568 584.2 568.3 585.2 568.3 585.2 667.5 219.3 667.3 219.3"/>
        </g>
        <polyline class="cls-12" points="565.8 585.8 641 862.8 492.6 862.8 563.8 588.8"/>
        <polygon class="cls-12" points="641 862.7 769.3 789.7 567.1 586 566.8 589.5 565.8 585.8 563.8 588.8 492.6 862.8 640.2 862.8 640.3 863 640.7 862.8 641 862.8 641 862.7"/>
        <polygon class="cls-3" points="773.8 379.8 847.8 509.8 848.8 660.8 773.8 789.8 643.8 864.8 493.8 864.8 643.8 305.8 773.8 379.8"/>
      </g>
      <polygon class="cls-2" points="590.9 500.8 545.6 500.8 506.4 523.4 483.8 562.6 483.8 607.9 506.4 647.1 545.6 669.8 590.9 669.8 630.1 647.1 652.8 607.9 652.8 562.6 630.1 523.4 590.9 500.8"/>
      <polyline class="cls-15" points="525.8 596.7 537.2 616.4 556.9 627.8 579.7 627.8 599.4 616.4 610.8 596.7 610.8 573.9 599.4 554.2 579.7 542.8"/>
      <polygon class="cls-16" points="534.8 594.3 543.8 609.8 559.3 618.8 577.3 618.8 592.8 609.8 601.8 594.3 601.8 576.3 592.8 560.8 577.3 551.8 567.8 585.8 534.8 594.3"/>
      <polyline class="cls-17" points="270.7 665.5 346.2 803.6 487.3 888.2 650.9 887.4 785.2 810.2"/>
      <text class="cls-18" transform="translate(246.7 690.5) rotate(61.3)"> </text>
      <text class="cls-18" transform="matrix(0.48, 0.88, -0.88, 0.48, 251.46, 699.25)"> </text>
      <text class="cls-18" transform="matrix(0.48, 0.88, -0.88, 0.48, 256.22, 707.97)">H</text>
      <text class="cls-18" transform="translate(268.1 729.6) rotate(61.3)">T</text>
      <text class="cls-18" transform="matrix(0.48, 0.88, -0.88, 0.48, 278.93, 749.5)">M</text>
      <text class="cls-18" transform="translate(293 775.2) rotate(61.3)">L</text>
      <text class="cls-18" transform="translate(303.1 793.6) rotate(61.3)"> </text>
      <text class="cls-18" transform="translate(307.8 802.4) rotate(61.3)"> </text>
      <text class="cls-18" transform="translate(312.6 811.1) rotate(61.3)"> </text>
      <text class="cls-18" transform="translate(320.8 827.7) rotate(30.9)">C</text>
      <text class="cls-18" transform="matrix(0.86, 0.51, -0.51, 0.86, 339.57, 839.02)">S</text>
      <text class="cls-18" transform="matrix(0.86, 0.51, -0.51, 0.86, 356.45, 849.14)">S</text>
      <text class="cls-18" transform="matrix(0.86, 0.51, -0.51, 0.86, 373.62, 859.43)">(</text>
      <text class="cls-18" transform="matrix(0.86, 0.51, -0.51, 0.86, 384.55, 865.98)">S</text>
      <text class="cls-18" transform="matrix(0.86, 0.51, -0.51, 0.86, 401.42, 876.1)">A</text>
      <text class="cls-18" transform="matrix(0.86, 0.51, -0.51, 0.86, 420.41, 887.48)">S</text>
      <text class="cls-18" transform="translate(437.3 897.6) rotate(30.9)">S</text>
      <text class="cls-18" transform="translate(454.4 907.9) rotate(30.9)">)</text>
      <text class="cls-19" transform="matrix(0.5, -0.86, 0.86, 0.5, 843.51, 842.29)">v</text>
      <text class="cls-19" transform="matrix(0.5, -0.86, 0.86, 0.5, 852.85, 826.23)">a</text>
      <text class="cls-19" transform="translate(862.7 809.2) rotate(-59.8)">n</text>
      <text class="cls-19" transform="matrix(0.5, -0.86, 0.86, 0.5, 873.25, 791.14)">i</text>
      <text class="cls-19" transform="matrix(0.5, -0.86, 0.86, 0.5, 878.84, 781.52)">l</text>
      <text class="cls-19" transform="translate(884.4 771.9) rotate(-59.8)">l</text>
      <text class="cls-19" transform="translate(890.4 761.6) rotate(-59.8)">a</text>
      <text class="cls-19" transform="translate(900.3 744.6) rotate(-59.8)"> </text>
      <text class="cls-19" transform="translate(905.3 736) rotate(-59.8)">J</text>
      <text class="cls-19" transform="translate(914.9 719.5) rotate(-59.8)">S</text>
      <text class="cls-19" transform="matrix(0.5, -0.86, 0.86, 0.5, 925.21, 701.76)"> </text>
      <text class="cls-19" transform="translate(931.3 685.1) rotate(-90.4)">&amp;</text>
      <text class="cls-19" transform="translate(931.1 659.7) rotate(-90.4)"> </text>
      <text class="cls-19" transform="translate(931 649.8) rotate(-90.4)">l</text>
      <text class="cls-19" transform="translate(931 638.6) rotate(-90.4)">i</text>
      <text class="cls-19" transform="translate(930.9 626.8) rotate(-90.4)">b</text>
      <text class="cls-19" transform="translate(930.8 605.5) rotate(-90.4)">r</text>
      <text class="cls-19" transform="translate(930.6 589.6) rotate(-90.4)">a</text>
      <text class="cls-19" transform="matrix(-0.01, -1, 1, -0.01, 930.52, 569.94)">r</text>
      <text class="cls-19" transform="translate(930.4 552.9) rotate(-90.4)">i</text>
      <text class="cls-19" transform="matrix(-0.01, -1, 1, -0.01, 930.33, 541.11)">e</text>
      <text class="cls-19" transform="matrix(-0.49, -0.87, 0.87, -0.49, 932.16, 514.27)">s</text>
      <line class="cls-20" x1="267.8" y1="653.3" x2="268.8" y2="510.3"/>
      <text class="cls-21" transform="matrix(0.01, -1, 1, 0.01, 255.79, 648.23)">b</text>
      <text class="cls-21" transform="matrix(0.01, -1, 1, 0.01, 255.93, 628.81)">u</text>
      <text class="cls-21" transform="matrix(0.01, -1, 1, 0.01, 256.06, 609.9)">s</text>
      <text class="cls-21" transform="translate(256.2 593.3) rotate(-89.6)">i</text>
      <text class="cls-21" transform="matrix(0.01, -1, 1, 0.01, 256.25, 582.49)">n</text>
      <text class="cls-21" transform="translate(256.4 563.4) rotate(-89.6)">e</text>
      <text class="cls-21" transform="translate(256.5 545.9) rotate(-89.6)">s</text>
      <text class="cls-21" transform="translate(256.6 529.7) rotate(-89.6)">s</text>
      <polyline class="cls-22" points="649 285 488.3 284.3 348.3 362.3 271.3 496.3"/>
      <text class="cls-23" transform="matrix(0.5, -0.87, 0.87, 0.5, 259.29, 487.28)">U</text>
      <text class="cls-23" transform="matrix(0.5, -0.87, 0.87, 0.5, 271.11, 466.71)">I</text>
      <text class="cls-23" transform="matrix(0.5, -0.87, 0.87, 0.5, 277.26, 456.02)"> </text>
      <text class="cls-23" transform="matrix(0.5, -0.87, 0.87, 0.5, 282.2, 447.41)">d</text>
      <text class="cls-23" transform="translate(292.8 429) rotate(-60.1)">e</text>
      <text class="cls-23" transform="translate(302.3 412.4) rotate(-60.1)">s</text>
      <text class="cls-23" transform="matrix(0.5, -0.87, 0.87, 0.5, 311.35, 396.68)">i</text>
      <text class="cls-23" transform="translate(317.2 386.4) rotate(-60.1)">g</text>
      <text class="cls-23" transform="translate(327.5 368.5) rotate(-60.1)">n</text>
      <text class="cls-23" transform="translate(337.3 352.7) rotate(-29.1)"> </text>
      <text class="cls-23" transform="translate(345.9 347.9) rotate(-29.1)"> </text>
      <text class="cls-23" transform="matrix(0.87, -0.49, 0.49, 0.87, 354.61, 343.08)">A</text>
      <text class="cls-23" transform="matrix(0.87, -0.49, 0.49, 0.87, 374.58, 331.95)">i</text>
      <text class="cls-23" transform="matrix(0.87, -0.49, 0.49, 0.87, 384.92, 326.19)"> </text>
      <text class="cls-23" transform="translate(393.6 321.4) rotate(-29.1)">X</text>
      <text class="cls-23" transform="matrix(0.87, -0.49, 0.49, 0.87, 411.7, 311.27)">d</text>
      <polyline class="cls-24" points="699.2 92.9 925.3 224.3 1058.8 448.8 1058.8 713.8"/>
      <text class="cls-25" transform="matrix(0.87, 0.48, -0.48, 0.87, 764.2, 118.95)">A</text>
      <text class="cls-25" transform="translate(785.3 130.6) rotate(29)">n</text>
      <text class="cls-25" transform="matrix(0.87, 0.48, -0.48, 0.87, 804.66, 141.36)">i</text>
      <text class="cls-25" transform="translate(815.6 147.4) rotate(29)">m</text>
      <text class="cls-25" transform="translate(842.1 162.1) rotate(29)">a</text>
      <text class="cls-25" transform="translate(859.3 171.6) rotate(29)">t</text>
      <text class="cls-25" transform="matrix(0.87, 0.48, -0.48, 0.87, 876.22, 181.02)">i</text>
      <text class="cls-25" transform="matrix(0.87, 0.48, -0.48, 0.87, 887.16, 187.08)">o</text>
      <text class="cls-25" transform="translate(905.7 197.4) rotate(29)">n</text>
      <text class="cls-25" transform="translate(925.1 208.1) rotate(29)">,</text>
      <text class="cls-25" transform="matrix(0.51, 0.86, -0.86, 0.51, 933.23, 212.78)"> </text>
      <text class="cls-25" transform="translate(938.6 221.8) rotate(59.4)"> </text>
      <text class="cls-25" transform="matrix(0.51, 0.86, -0.86, 0.51, 943.93, 230.87)">v</text>
      <text class="cls-25" transform="translate(954.1 248.1) rotate(59.4)">i</text>
      <text class="cls-25" transform="matrix(0.51, 0.86, -0.86, 0.51, 960.47, 258.83)">s</text>
      <text class="cls-25" transform="translate(970.2 275.3) rotate(59.4)">u</text>
      <text class="cls-25" transform="matrix(0.51, 0.86, -0.86, 0.51, 981.37, 294.16)">a</text>
      <text class="cls-25" transform="matrix(0.51, 0.86, -0.86, 0.51, 991.94, 312.02)">l</text>
      <text class="cls-25" transform="translate(998.3 322.8) rotate(59.4)"> </text>
      <text class="cls-25" transform="translate(1003.7 331.8) rotate(59.4)">e</text>
      <text class="cls-25" transform="translate(1013.9 349.2) rotate(59.4)">ff</text>
      <text class="cls-25" transform="matrix(0.51, 0.86, -0.86, 0.51, 1029.74, 375.91)">e</text>
      <text class="cls-25" transform="translate(1040.2 393.6) rotate(59.4)">c</text>
      <text class="cls-25" transform="matrix(0.51, 0.86, -0.86, 0.51, 1049.78, 409.79)">t</text>
      <text class="cls-25" transform="translate(1059.4 426.1) rotate(59.4)">s</text>
      <text class="cls-25" transform="translate(1068 440.6) rotate(59.4)">,</text>
      <text class="cls-25" transform="translate(1071.5 450.7) rotate(90.1)"> <tspan x="10.5" y="0"> </tspan><tspan x="21" y="0">g</tspan><tspan x="42.9" y="0">a</tspan><tspan x="63.7" y="0">m</tspan><tspan x="94" y="0">e</tspan></text>
      <polyline class="cls-26" points="463.3 194.3 673.3 194.2 854.3 298.3"/>
      <text class="cls-27" transform="translate(478.2 181.6) rotate(0)"> </text>
      <text class="cls-27" transform="translate(487.7 181.6) rotate(0)"> </text>
      <text class="cls-27" transform="translate(497.1 181.6) rotate(0)"> </text>
      <text class="cls-27" transform="matrix(1, 0, 0, 1, 506.59, 181.62)"> </text>
      <text class="cls-27" transform="matrix(1, 0, 0, 1, 516.05, 181.62)"> </text>
      <text class="cls-27" transform="translate(525.5 181.6) rotate(0)"> </text>
      <text class="cls-27" transform="matrix(1, 0, 0, 1, 534.95, 181.61)"> </text>
      <text class="cls-27" transform="matrix(1, 0, 0, 1, 544.39, 181.6)"> </text>
      <text class="cls-27" transform="translate(553.8 181.6) rotate(0)"> </text>
      <text class="cls-27" transform="matrix(1, 0, 0, 1, 563.3, 181.6)"> </text>
      <text class="cls-27" transform="translate(572.7 181.6) rotate(0)"> </text>
      <text class="cls-27" transform="translate(582.2 181.6) rotate(0)"> </text>
      <text class="cls-27" transform="translate(591.7 181.6) rotate(0)"> </text>
      <text class="cls-27" transform="matrix(1, 0, 0, 1, 601.11, 181.58)"> </text>
      <text class="cls-27" transform="translate(610.5 181.6) rotate(0)"> </text>
      <text class="cls-27" transform="translate(620 181.6) rotate(0)"> </text>
      <text class="cls-27" transform="translate(629.4 181.6) rotate(0)">U</text>
      <text class="cls-27" transform="matrix(1, 0, 0, 1, 651.89, 181.56)">X</text>
      <text class="cls-27" transform="translate(671.8 180.1) rotate(29.9)"> </text>
      <text class="cls-27" transform="matrix(0.87, 0.5, -0.5, 0.87, 679.61, 184.62)">d</text>
      <text class="cls-27" transform="translate(697.1 194.7) rotate(29.9)">e</text>
      <text class="cls-27" transform="translate(713 203.8) rotate(29.9)">s</text>
      <text class="cls-27" transform="matrix(0.87, 0.5, -0.5, 0.87, 728.13, 212.52)">i</text>
      <text class="cls-27" transform="matrix(0.87, 0.5, -0.5, 0.87, 737.55, 217.94)">g</text>
      <text class="cls-27" transform="translate(754.6 227.8) rotate(29.9)">n</text>
      <polyline class="cls-28" points="453.7 1002.8 681.9 1002.8 873.4 892"/>
      <text class="cls-29" transform="translate(497.6 1046.1)">C<tspan x="21.8" y="0">S</tspan><tspan x="41.5" y="0">S</tspan><tspan x="61.9" y="0"> </tspan><tspan x="71.8" y="0">a</tspan><tspan x="91.5" y="0">n</tspan><tspan x="112.4" y="0">d</tspan><tspan x="133.6" y="0"> </tspan><tspan x="143.6" y="0">J</tspan><tspan x="162.7" y="0">S</tspan><tspan x="183.1" y="0"> </tspan></text>
      <text class="cls-29" transform="translate(698.6 1045.4) rotate(-29.9)">a</text>
      <text class="cls-29" transform="translate(715.7 1035.6) rotate(-29.9)">n</text>
      <text class="cls-29" transform="translate(733.8 1025.1) rotate(-29.9)">i</text>
      <text class="cls-29" transform="matrix(0.87, -0.5, 0.5, 0.87, 744.04, 1019.23)">m</text>
      <text class="cls-29" transform="matrix(0.87, -0.5, 0.5, 0.87, 768.89, 1004.94)">a</text>
      <text class="cls-29" transform="matrix(0.87, -0.5, 0.5, 0.87, 784.99, 995.68)">t</text>
      <text class="cls-29" transform="matrix(0.87, -0.5, 0.5, 0.87, 800.87, 986.55)">i</text>
      <text class="cls-29" transform="translate(811.1 980.7) rotate(-29.9)">o</text>
      <text class="cls-29" transform="translate(828.5 970.6) rotate(-29.9)">n</text>
      <text class="cls-30" transform="translate(571.2 526.8) rotate(6.7)"> </text>
      <text class="cls-30" transform="translate(577.8 527.5) rotate(13.2)"> </text>
      <text class="cls-30" transform="matrix(0.92, 0.39, -0.39, 0.92, 584.14, 528.59)">n</text>
      <text class="cls-30" transform="translate(597 534) rotate(36.7)">p</text>
      <text class="cls-30" transform="matrix(0.61, 0.8, -0.8, 0.61, 608.54, 541.92)">m</text>
      <text class="cls-30" transform="translate(619.9 557.8) rotate(65.1)"> </text>
      <text class="cls-30" transform="matrix(0.32, 0.95, -0.95, 0.32, 622.67, 563.8)"> </text>
      <text class="cls-30" transform="translate(624.8 570.1) rotate(78.1)"> </text>
      <text class="cls-30" transform="matrix(0.1, 1, -1, 0.1, 626.17, 576.52)"> </text>
      <text class="cls-30" transform="translate(627.2 582.9) rotate(94.8)">R</text>
      <text class="cls-30" transform="matrix(-0.3, 0.95, -0.95, -0.3, 626.08, 597.22)">e</text>
      <text class="cls-30" transform="translate(622.3 609.4) rotate(120.2)">a</text>
      <text class="cls-30" transform="translate(615.7 620.8) rotate(132.3)">c</text>
      <text class="cls-30" transform="matrix(-0.81, 0.59, -0.59, -0.81, 607.83, 629.6)">t</text>
      <text class="cls-30" transform="translate(597.7 636.8) rotate(153)"> </text>
      <text class="cls-30" transform="translate(591.8 639.8) rotate(159.4)"> </text>
      <text class="cls-30" transform="translate(585.7 642.1) rotate(165.9)"> </text>
      <text class="cls-30" transform="matrix(-0.99, 0.13, -0.13, -0.99, 579.26, 643.78)"> </text>
      <text class="cls-30" transform="matrix(-1, -0.05, 0.05, -1, 573, 645.12)">A</text>
      <text class="cls-30" transform="translate(557.7 644.4) rotate(-163.1)">n</text>
      <text class="cls-30" transform="translate(544.3 640.4) rotate(-149.6)">g</text>
      <text class="cls-30" transform="translate(532.3 633.5) rotate(-136.3)">u</text>
      <text class="cls-30" transform="matrix(-0.59, -0.81, 0.81, -0.59, 522.38, 623.69)">l</text>
      <text class="cls-30" transform="matrix(-0.43, -0.9, 0.9, -0.43, 517.61, 617.63)">a</text>
      <text class="cls-30" transform="translate(511.9 605.8) rotate(-103.8)">r</text>
      <g class="cls-13">
        <polygon class="cls-31" points="642.9 863.8 493.7 863.8 492 862.8 488.7 874.8 460.8 976.8 461.5 977.2 671.8 977.2 852.9 872.6 771.1 789.8 642.9 863.8"/>
      </g>
      <polyline class="cls-32" points="483.3 912.3 659.9 912.2 810.7 825.1 897.8 675.4 896.6 500.2 810.7 349.3 659.9 263.4"/>
    </g>
  </g>
</svg>
