<svg xmlns="http://www.w3.org/2000/svg" viewBox="0 0 429 429">
  <defs>
    <style>
      .cls-1 {
        opacity: 0.86;
      }

      .cls-2 {
        fill: #066;
      }

      .cls-3 {
        fill: #042d2d;
      }

      .cls-4 {
        fill: #033;
      }

      .cls-5 {
        fill: #004d4d;
      }

      .cls-6 {
        fill: #338585;
      }
    </style>
  </defs>
  <title>Asset 3</title>
  <g id="Layer_2" data-name="Layer 2">
    <g id="Layer_1-2" data-name="Layer 1">
      <g class="cls-1">
        <polygon class="cls-2" points="67.7 370.2 0.5 220.8 58.8 67.7 208.2 0.5 361.4 58.8 428.5 208.2 370.2 361.4 220.8 428.5 67.7 370.2"/>
        <path d="M208.2,1.1,361,59.2l66.9,149L369.9,361,220.8,427.9,68,369.9,1.1,220.8,59.2,68l149-66.9m0-1.1L58.4,67.3,0,220.8,67.3,370.6,220.8,429l149.8-67.3L429,208.2,361.7,58.4,208.2,0Z"/>
      </g>
      <polygon class="cls-3" points="278.1 199.7 221.1 428.7 371.1 362.7 278.1 199.7"/>
      <polygon class="cls-4" points="428.4 207.2 371.1 362.7 278.1 199.7 428.4 207.2"/>
      <polygon class="cls-4" points="67.8 369.8 278.1 199.7 221.1 428.7 67.8 369.8"/>
      <polygon class="cls-5" points="278.1 199.7 363.4 61 428.8 207.2 278.1 199.7"/>
      <polygon class="cls-2" points="278.1 199.7 207.8 0.4 362.9 60.3 278.1 199.7"/>
      <polygon class="cls-5" points="68.8 368.8 2.1 223.3 278.1 199.7 68.8 368.8"/>
      <polygon class="cls-6" points="278.1 199.7 57.6 67.3 207.2 0.9 278.1 199.7"/>
    </g>
  </g>
</svg>
