<?xml version="1.0" encoding="utf-8"?>
<!-- Generator: Adobe Illustrator 22.1.0, SVG Export Plug-In . SVG Version: 6.00 Build 0)  -->
<svg version="1.1" xmlns="http://www.w3.org/2000/svg" xmlns:xlink="http://www.w3.org/1999/xlink" x="0px" y="0px"
	 viewBox="0 0 1024 768" style="enable-background:new 0 0 1024 768;" xml:space="preserve">
<style type="text/css">
	.st0{fill:#1E5A62;}
	.st1{fill:#F5F5F5;}
	.st2{fill:#31312F;}
	.st3{fill:#E8B931;}
	.st4{fill:#ABABAB;}
	.st5{fill:#8E98A7;}
	.st6{font-family:'Helvetica';}
	.st7{font-size:12px;}
	.st8{fill:#CC0033;}
	.st9{font-family:'MyriadPro-Regular';}
	.st10{fill:#FFFFFF;}
</style>
<g id="Level_1">
	<rect x="46" y="44" class="st0" width="180" height="631"/>
	<rect x="238" y="44" class="st1" width="180" height="631"/>
	<rect x="430" y="44" class="st2" width="180" height="631"/>
	<rect x="622" y="44" class="st3" width="180" height="631"/>
	<rect x="814" y="44" class="st4" width="180" height="631"/>
	<text transform="matrix(1 0 0 1 44 725.8984)" class="st5 st6 st7">Coolors Exported Palette - coolors.co/1e5a62-f5f5f5-31312f-e8b931-ababab</text>
</g>
<g id="flags">
	<rect x="268.6" y="79.4" class="st8" width="90.3" height="67.7"/>
	<text transform="matrix(1 0 0 1 269.0701 174.4058)"><tspan x="0" y="0" class="st9 st7">Red (NCS) (#C60C30)</tspan><tspan x="0" y="14.4" class="st9 st7">White (#FFFFFF).</tspan></text>
	<rect x="268.5" y="108.4" class="st10" width="90.5" height="6.9"/>
	
		<rect x="278.9" y="110.1" transform="matrix(-1.836970e-16 1 -1 -1.836970e-16 426.4095 -199.713)" class="st10" width="68.3" height="6.5"/>
	<text transform="matrix(1 0 0 1 269.6917 343.6971)"><tspan x="0" y="0" class="st9 st7">Black (#000000) </tspan><tspan x="0" y="14.4" class="st9 st7">Electric Red (#DD0000) </tspan><tspan x="0" y="28.8" class="st9 st7">Tangerine Yellow (#FFCE00)</tspan></text>
</g>
</svg>
